<?xml version="1.0" encoding="UTF-8" standalone="no"?><svg xmlns="http://www.w3.org/2000/svg" xmlns:xlink="http://www.w3.org/1999/xlink" fill="#ffffff" height="86.9" preserveAspectRatio="xMidYMid meet" version="1" viewBox="5.7 212.7 501.8 86.9" width="501.8" zoomAndPan="magnify"><g><g id="change1_1"><path d="M134.7,231.9c-6.9-1.2-13.9-2.3-20.9-3.3c-20.5-3.1-40.9-6.1-61.4-9.3c-9.4-1.5-18.8-2.9-28.3-4.4 c-3.5-0.5-7.1-1.1-10.6-1.6c-1.4-0.2-2.8-0.4-4.1-0.5c-1-0.1-2.1,0.1-3,0c-0.5-0.1-0.7,0.6-0.2,0.7c0,0,0.1,0,0.1,0 c0,0.1,0,0.3,0.2,0.5c3,3.1,6.3,5.9,9.4,8.8c3.2,2.9,6.3,5.8,9.5,8.8c11.1,10.3,22.3,20.5,33.7,30.4c2.8,2.4,5.6,5.1,8.6,7.3 c2.2,1.7,4.8,0,7-1.3c4.9,3.1,9.7,6.5,14.3,10.1c2.4,1.9,4.7,3.8,7,5.8c1.1,1,2.2,2,3.4,3c0.8,0.7,1.5,1.4,2.3,1.9 c0.1,0.5,0.9,0.6,1,0c1.2-6.9,2.5-13.8,3.7-20.7c0.6-3.5,1.2-6.9,1.8-10.4c0.3-1.8,0.6-3.6,0.9-5.3c0.3-1.5,0.6-3.1,0.6-4.6 c0,0,0,0,0,0c4.1-1.5,8-3.7,11.8-5.8c4.5-2.6,8.9-5.4,13.2-8.3C135.4,233.1,135.4,232,134.7,231.9z M71.3,268.1 c-1.5,0.7-2.2,0.3-3.4-0.7c-1.3-1.1-2.6-2.2-3.8-3.3c-2.8-2.4-5.5-4.8-8.3-7.2c-5.4-4.7-10.8-9.5-16.1-14.4 c-5.4-4.9-10.8-9.8-16.1-14.8c-2.6-2.4-5.2-4.8-7.8-7.2c-2.3-2.1-4.5-4.3-6.8-6.3c0.1,0,0.2,0.1,0.3,0.1c0.4,0.1,0.8,0.3,1.2,0.4 c4.3,2,8.6,4.1,12.8,6.2c13.9,6.7,27.7,13.3,41.6,19.9c10.1,4.8,20,10,30.4,14.2c-7.3,3.7-14.4,7.7-21.5,11.6 C72.9,267.2,72.1,267.7,71.3,268.1z M99.8,285.6c-1.1-1-2.2-2-3.3-3c-2.3-2-4.6-3.9-7-5.8c-4.4-3.4-8.9-6.7-13.5-9.7 c0.1-0.1,0.2-0.1,0.3-0.2c0,0,0,0,0,0c0.2,0.1,0.5,0.2,0.8,0.2c0.5,0.2,1,0.3,1.5,0.4c1,0.3,2,0.5,3.1,0.8 c0.3,0.1,0.4-0.3,0.1-0.4c-1-0.4-2-0.8-3-1.2c-0.4-0.2-0.9-0.3-1.4-0.5c0.7-0.4,1.5-0.8,2.2-1.2c0.1,0,0.2,0,0.2,0.1 c0.3,0.1,0.5,0.1,0.8,0.2c0.5,0.1,1.1,0.3,1.6,0.4c1.1,0.2,2.2,0.5,3.4,0.7c0.2,0,0.2-0.2,0.1-0.3c-1.1-0.4-2.1-0.8-3.2-1.2 c-0.5-0.2-1.1-0.4-1.6-0.5c0,0,0,0,0,0c0.8-0.4,1.6-0.9,2.4-1.3c0.4,0.2,0.9,0.2,1.4,0.3c0.6,0.1,1.2,0.2,1.7,0.4 c1.2,0.2,2.4,0.4,3.6,0.6c0.3,0,0.4-0.3,0.1-0.4c-1.2-0.3-2.3-0.7-3.5-0.9c-0.6-0.1-1.2-0.3-1.8-0.4c-0.1,0-0.3-0.1-0.4-0.1 c0.8-0.4,1.6-0.9,2.3-1.3c0.4,0.4,1.1,0.4,1.6,0.6c0.7,0.2,1.3,0.3,2,0.4c0.7,0.1,1.3,0.3,2,0.4c0.6,0.1,1.3,0.3,1.9,0.3 c0.2,0,0.2-0.2,0.1-0.3c-0.6-0.3-1.2-0.5-1.8-0.7c-0.7-0.2-1.3-0.4-2-0.6c-0.7-0.2-1.3-0.4-2-0.6c-0.2-0.1-0.4-0.1-0.7-0.2 c0.8-0.4,1.5-0.9,2.3-1.3c0.2,0.1,0.5,0.2,0.8,0.2c0.5,0.2,1.1,0.3,1.6,0.4c1.1,0.3,2.2,0.6,3.4,0.8c0.3,0.1,0.4-0.3,0.1-0.4 c-1.1-0.4-2.1-0.8-3.2-1.1c-0.5-0.2-1.1-0.4-1.6-0.5c0,0,0,0-0.1,0c1.5-0.9,3.1-1.8,4.6-2.7c0.2,2.2,1.1,4.4,1.6,6.6 c0.7,3,1.4,6,2,9c1.1,5.3,2.2,10.7,2.3,16.1C101.1,286.9,100.4,286.2,99.8,285.6z M121,240.2c-4.3,2.5-8.8,4.8-13,7.5 c-0.2,0.1-0.1,0.4,0.2,0.4c0.3-0.1,0.7-0.2,1-0.4c-0.3,1-0.5,2.1-0.7,3.2c-0.6-0.4-1.5-0.6-2.2-0.9c-1.1-0.4-2.3-0.9-3.4-1.3 c-2.3-0.9-4.7-1.8-7-2.6c-4.7-1.7-9.3-3.5-14.1-5.1c-0.2-0.1-0.3,0.2-0.1,0.3c4.4,2.1,8.9,3.7,13.5,5.4c2.4,0.9,4.8,1.8,7.2,2.7 c1.1,0.4,2.1,0.8,3.2,1.2c0.8,0.3,1.8,0.9,2.7,1c-0.1,0.4-0.1,0.8-0.2,1.1c-0.1,0.3-0.1,0.6-0.2,0.8c-0.5-0.3-1.1-0.5-1.7-0.7 c-1-0.4-2-0.7-2.9-1.1c-2-0.7-3.9-1.5-5.9-2.2c-3.9-1.5-7.8-3.1-11.9-4.2c-0.1,0-0.1,0.1-0.1,0.1c3.6,1.8,7.5,3.1,11.3,4.5 c2,0.7,3.9,1.5,5.9,2.2c1,0.4,2,0.7,2.9,1.1c0.7,0.3,1.5,0.7,2.2,0.7c-0.1,0.6-0.2,1.2-0.3,1.8c-0.4-0.2-0.9-0.4-1.4-0.5 c-0.9-0.3-1.7-0.6-2.6-1c-1.7-0.6-3.4-1.3-5.1-1.9c-3.4-1.3-6.8-2.7-10.4-3.6c0,0-0.1,0,0,0.1c3.1,1.6,6.6,2.7,9.9,3.9 c1.7,0.6,3.4,1.3,5.1,1.9c0.9,0.3,1.7,0.6,2.6,1c0.6,0.2,1.2,0.5,1.8,0.6c-0.1,0.5-0.2,0.9-0.3,1.4c0,0.2-0.1,0.3-0.1,0.5 c-2.6-1.1-5.2-2.1-7.9-3c-0.1,0-0.2,0.1-0.1,0.2c2.6,1.3,5.2,2.4,7.8,3.5c-0.1,0.6-0.2,1.3-0.3,1.9c-0.3-0.1-0.6-0.2-0.9-0.4 c-0.5-0.2-1-0.4-1.5-0.6c-1-0.4-2-0.8-3-1.2c-0.2-0.1-0.3,0.2-0.1,0.3c1,0.5,1.9,1,2.9,1.4c0.5,0.2,1,0.5,1.5,0.7 c0.3,0.2,0.7,0.3,1,0.5c-0.1,0.6-0.2,1.3-0.3,1.9c-0.2-0.2-0.5-0.3-0.8-0.4c-0.4-0.1-0.7-0.3-1.1-0.4c-0.4-0.1-0.7-0.3-1.1-0.4 c-0.4-0.1-0.8-0.3-1.2-0.4c-0.1,0-0.2,0.1-0.1,0.2c0.3,0.2,0.7,0.4,1.1,0.6c0.3,0.2,0.7,0.3,1,0.5c0.3,0.2,0.7,0.3,1,0.5 c0.3,0.1,0.6,0.3,0.9,0.3c-0.1,0.7-0.2,1.3-0.4,2c-1.1-0.6-2.2-1.1-3.4-1.7c-0.2-0.1-0.4,0.2-0.2,0.3c1.1,0.6,2.3,1.3,3.5,1.9 c-0.1,0.5-0.2,0.9-0.3,1.4c0,0.2-0.1,0.4-0.1,0.6c-0.1,0-0.1-0.1-0.2-0.1c-0.3-0.1-0.5-0.3-0.8-0.4c-0.5-0.3-1.1-0.5-1.6-0.8 c-0.1-0.1-0.3,0.1-0.1,0.2c0.5,0.4,1,0.7,1.5,1.1c0.2,0.2,0.5,0.3,0.7,0.5c0.1,0.1,0.3,0.2,0.4,0.2c-0.1,0.7-0.3,1.4-0.4,2.1 c-0.3-0.2-0.6-0.3-0.9-0.5c-0.2-0.1-0.5-0.2-0.7-0.3c-0.2-0.1-0.5-0.2-0.7-0.3c-0.1,0-0.3,0.2-0.1,0.2c0.2,0.2,0.4,0.3,0.6,0.5 c0.2,0.1,0.4,0.3,0.6,0.4c0.4,0.2,0.7,0.4,1.1,0.6c-0.1,0.7-0.3,1.4-0.4,2.1c0,0-0.1,0-0.1-0.1c-0.1-0.1-0.3-0.2-0.4-0.3 c-0.1-0.1-0.3-0.2-0.5-0.3c-0.1,0-0.1-0.1-0.2-0.1c0,0-0.1,0-0.1,0c0,0,0,0-0.1,0c0,0-0.1,0-0.1,0.1c0,0,0,0.1,0,0.1 c0,0,0,0.1,0.1,0.1c0,0.1,0.1,0.1,0.1,0.2c0.1,0.1,0.2,0.2,0.3,0.4c0.1,0.1,0.2,0.2,0.4,0.3c0.1,0.1,0.2,0.2,0.4,0.3 c-0.5,3-1.1,6-1.6,9c-0.4-4.1-1.1-8.3-1.9-12.3c-0.6-3.1-1.3-6.2-2.1-9.3c-0.6-2.3-1-4.9-2.2-6.9c0.1-0.3-0.2-0.7-0.6-0.5 c-4.4-2.3-8.9-4.5-13.4-6.7c-13.8-6.7-27.7-13.4-41.5-20.1c-7.4-3.6-14.8-7.2-22.3-10.7c1.9,0.6,3.9,1.3,5.8,1.9 c15.1,4.9,30.2,9.9,45.2,14.9c11.5,3.8,22.9,8.1,34.5,11.5c0,0,0.1-0.1,0-0.1c-5-2.4-10.4-4.2-15.6-6 c-14.9-5.2-29.9-10.3-44.9-15.4c-7-2.4-14.1-4.8-21.1-7.1c-1-0.3-2-0.7-3-1c2.5,0.4,4.9,0.8,7.4,1.2c20.3,3.1,40.7,6,61.1,9.1 c14.7,2.2,29.5,4.3,44.2,6.8C128.5,235.6,124.8,238,121,240.2z"/><path d="M65.3,234.7c-1.6-0.7-3.1-1.3-4.7-2c-0.8-0.3-1.5-0.6-2.3-0.9c-0.6-0.3-1.3-0.7-2-0.7c-0.1,0-0.2,0.2-0.1,0.3 c0.5,0.5,1.2,0.7,1.8,0.9c0.8,0.3,1.5,0.6,2.3,0.9c1.5,0.6,3,1.2,4.6,1.8c3.1,1.2,6.2,2.5,9.3,3.7c0.1,0.1,0.2-0.2,0.1-0.2 C71.3,237.2,68.3,235.9,65.3,234.7z"/><path d="M66.6,237.7c-1.2-0.5-2.4-1-3.6-1.6c-0.6-0.2-1.2-0.5-1.7-0.7c-0.5-0.2-0.9-0.5-1.4-0.5c-0.2,0-0.3,0.3-0.2,0.4 c0.4,0.4,1.1,0.6,1.6,0.8c0.6,0.2,1.2,0.5,1.7,0.7c1.2,0.5,2.3,1,3.5,1.5c2.3,1,4.6,1.9,6.9,2.8c0.2,0.1,0.4-0.3,0.2-0.4 C71.2,239.7,68.9,238.7,66.6,237.7z"/><path d="M78.1,242.5c-0.3-0.1-0.7-0.3-1-0.4c-0.3-0.1-0.6-0.3-0.9-0.4c-0.2,0-0.4,0.2-0.2,0.3c0.3,0.2,0.6,0.3,0.9,0.5 c0.3,0.1,0.7,0.3,1,0.4c0.7,0.3,1.3,0.6,2,0.9c1.3,0.6,2.7,1.2,4,1.6c0.1,0,0.1-0.1,0.1-0.1c-1.2-0.7-2.6-1.3-3.9-1.9 C79.5,243.1,78.8,242.8,78.1,242.5z"/><path d="M46.1,228c-1-0.5-2.1-0.9-3.1-1.4c-0.6-0.2-1.1-0.5-1.7-0.7c-0.4-0.2-0.7-0.4-1.2-0.3c-0.1,0-0.1,0.1-0.1,0.2 c0.3,0.4,0.8,0.6,1.3,0.8c0.5,0.2,1,0.5,1.6,0.7c1,0.5,2.1,0.9,3.1,1.4c2.1,0.9,4.2,1.8,6.4,2.6c0.1,0,0.2-0.1,0.1-0.2 C50.4,229.9,48.2,228.9,46.1,228z"/></g><g id="change1_2"><path d="M491.4,247c-1.1-1.6-2.5-2.9-4.2-3.7c-1.5-0.6-3.3-0.9-4.8-0.3c-1.6,0.6-3,1.7-4.1,3c-2.2,2.8-2.9,6.3-1.1,9.5 c1.9,3.4,5.8,5,9.6,4.2c1.8-0.4,3.4-1.4,4.5-2.8c1-1.3,1.7-3.4,1-5c0,0-0.1-0.1-0.1-0.1c0.2-0.7,0.4-1.4,0.4-2.1 C492.4,248.7,492,247.9,491.4,247z M489.2,256.4c-1.2,1.1-2.8,1.6-4.4,1.6c-2.9,0-5.5-1.9-6.4-4.7c-0.8-2.6,0.5-5.2,2.4-7 c0.9-0.8,2.1-1.5,3.3-1.6c1.2,0,2.4,0.4,3.3,1.2c1,0.8,1.8,1.9,2.4,3.1c0.3,0.6,0.6,1.3,1,1.8c0.3,0.3,0.5,0.6,0.7,1 c0,0,0,0,0,0.1C491,253.5,490.5,255.2,489.2,256.4z"/><path d="M470.1,293.9C470.1,293.9,470.1,293.9,470.1,293.9c0.1-0.2,0.1-0.4,0.2-0.6c0,0,0,0,0,0 C470.2,293.5,470.1,293.7,470.1,293.9z"/><path d="M500.2,235.2c-7.7-7.7-20.7-8.2-28.8-0.8c-8.7,7.9-8.9,20.2-7.1,30.9c0.8,5.1,2.1,10,3.3,15c0.6,2.6,1.2,5.1,1.6,7.7 c0.4,2.1,1.1,4.2,1.3,6.3c0,0,0,0,0,0c-0.6,0.5,0.2,1.5,0.8,1.1c10.7-8.2,20.8-17.9,28.4-29.1c3.4-5,6.1-10.8,6.2-16.9 C506.1,244,504,238.9,500.2,235.2z M493.9,269.8c-6.7,8.5-14.4,16.1-22.3,23.5c0.2-1.7,0.3-3.4,0.1-5.2c-0.3-2.5-0.9-5.1-1.5-7.6 c-1.2-5.1-2.5-10.1-3.4-15.3c-1.7-10.2-1.7-22.1,6.8-29.4c7.9-6.8,20.8-4.9,26.7,3.6C507.5,249.7,500.5,261.4,493.9,269.8z"/></g><g id="change1_3"><path d="M467.2,294.6c-3.1-2.5-6.2-5-9.4-7.5c-12.9-10-26.5-19.4-41.6-25.9c-16.2-7-33.5-9.8-51.1-8.7 c-37.6,2.4-72.2,20.4-109.8,23c-7.5,0.5-15.2,0.4-22.8-0.6c3.1-9.6,0.2-20.4-6.7-28.4c-4.7-5.4-10.9-9.6-17.9-11.3 c-5.9-1.5-13.3-1.8-18.4,2.1c-5.9,4.5-5,11.9-1.4,17.6c4.2,6.5,11.2,11,18.1,14.3c7.5,3.6,15.6,5.9,23.9,7.1 c-2.6,5.8-7.6,10.3-13,13.5c-15.5,9-34.4,8.4-51.5,5.8c-19-3-37.8-9-57.2-8.4c-0.5,0-0.5,0.8,0,0.8c5.2,0.3,10.3,1,15.4,1.7 c19.8,3,39.3,9,59.4,9.5c15.7,0.4,34.4-3.2,44.9-16.1c1.7-2.1,2.9-4.2,3.8-6.5c7.4,1,14.9,1.1,22.2,0.7 c39.3-2.3,75.3-21.9,114.6-23.6c19.1-0.8,37.4,3.4,54.4,11.9c15.7,7.8,29.9,18.4,43.6,29.3C467.1,295.2,467.4,294.8,467.2,294.6z M208,268.3c-7-3.2-14.3-7.6-18.5-14.2c-2-3-3.5-6.8-2.5-10.5c0.9-3.3,3.7-5.7,6.9-6.8c6.3-2.1,13.8-0.6,19.6,2.3 c6.5,3.2,11.9,8.7,15.3,15.1c3.1,6,4.3,13.1,2.3,19.7c-0.1,0.3-0.2,0.6-0.3,0.9C222.9,273.7,215.2,271.6,208,268.3z"/></g></g></svg>