<?xml version="1.0" encoding="UTF-8" standalone="no"?><svg xmlns="http://www.w3.org/2000/svg" xmlns:xlink="http://www.w3.org/1999/xlink" fill="#ffffff" height="301" preserveAspectRatio="xMidYMid meet" version="1" viewBox="-0.8 -0.2 530.1 301.0" width="530.1" zoomAndPan="magnify"><g><g id="change1_1"><path d="M232.5,222.42c1.08-7.36,2.2-14.7,2.86-22.11c0.61-6.81,1.13-13.61,1.5-20.43c0.76-13.7,1.51-27.41,1.87-41.13 c0.72-27.26,1.07-54.52,1.06-81.79c0-7.73-0.12-15.46-0.26-23.19c-0.07-3.82-0.14-7.65-0.22-11.47c-0.04-1.91-0.08-3.82-0.13-5.73 c-0.07-2.86-0.35-5.62-0.84-8.45c-0.44-2.5-2.94-5.52-5.13-6.68c-2.26-1.19-4.58-1.67-7.12-1.33c-2.34,0.31-4.77,1.28-6.41,3.07 c-0.58,0.75-1.16,1.51-1.75,2.26c-1.01,1.74-1.52,3.62-1.53,5.64c-0.43,3.46-0.15,6.98-0.07,10.47c0.07,3.32,0.14,6.65,0.2,9.97 c0.12,6.81,0.17,13.63,0.31,20.44c0.28,13.63,0.46,27.26,0.55,40.89c0.09,13.63,0.09,27.26-0.01,40.89 c-0.09,13.63-0.07,27.26-0.14,40.88c-0.04,7.65-0.09,15.28,0.02,22.93c0.05,3.74,0.06,7.48,0.29,11.21 c0.24,3.9,0.47,7.81,0.69,11.71c0.21,3.63,2.61,6.64,6.3,7.14c1.55,0.21,3.28,0.01,4.63-0.86 C230.64,225.81,232.24,224.24,232.5,222.42L232.5,222.42z"/></g><g id="change1_6"><path d="M298.52,265.2c2.5-2.66,4.96-5.82,6.72-9.04c1.53-2.79,3.06-5.59,4.6-8.37c3.16-5.72,6.12-11.55,9.16-17.34 c6.01-11.45,12.08-22.85,18.1-34.29c12.12-23.04,24.71-45.84,37.58-68.47c3.63-6.39,7.28-12.77,10.83-19.2 c1.77-3.21,3.69-6.37,5.28-9.68c1.86-3.87,3.95-7.65,4.74-11.91c0.35-1.89,0.34-3.59-0.42-5.39c-0.67-1.59-1.82-3.13-3.39-3.96 c-1.3-0.69-2.71-1.06-4.18-1.13c-2.31-0.1-4.15,1.07-5.86,2.43c-3.16,2.5-5.32,5.82-7.66,9.06c-1.87,2.6-3.53,5.33-5.23,8.05 c-3.47,5.56-6.86,11.16-10.13,16.84c-6.55,11.34-13.03,22.73-19.23,34.27c-12.34,22.95-24.33,46.09-35.25,69.76 c-3.35,7.25-6.76,14.5-9.79,21.89c-1.38,3.37-2.75,6.75-4.12,10.12c-1.53,3.79-2.35,7.74-2.83,11.79c-0.3,2.5,1.88,5.04,3.99,5.93 C293.76,267.52,296.73,267.1,298.52,265.2L298.52,265.2z"/></g><g id="change1_3"><path d="M397.9,293.52c2.59-1.48,4.37-3.6,6.36-5.75c1.61-1.74,3.24-3.48,4.87-5.21c3.21-3.41,6.13-7.11,9.19-10.66 c6.08-7.06,12.38-13.92,18.59-20.86c12.44-13.92,25.36-27.37,38.13-40.97c3.59-3.82,7.03-7.83,10.37-11.87 c2.02-2.45,3.76-5.13,5.59-7.73c0.73-1.03,1.4-2.09,2.07-3.16c0.31-0.5,0.65-0.99,0.93-1.51c0.74-1.35,0.83-2.76,1-4.24 c0.32-2.98-2.84-5.7-5.62-5.62c-0.9,0.02-1.92-0.01-2.76,0.26c-0.89,0.29-1.74,0.74-2.57,1.18c-1.06,0.57-2.14,1.11-3.17,1.73 c-1.93,1.17-3.84,2.37-5.75,3.56c-2.55,1.6-4.86,3.68-7.2,5.57c-1.81,1.46-3.65,2.89-5.41,4.4c-7.13,6.13-13.7,12.93-20.15,19.75 c-6.41,6.78-12.71,13.66-18.9,20.64c-6.24,7.05-12.15,14.41-18.01,21.78c-3.7,4.65-7.55,9.27-11,14.12 c-1.5,2.12-2.9,4.32-4.33,6.49c-1.82,2.75-3.76,5.34-4.63,8.57c-0.88,3.29,0.35,6.81,3.02,8.87 C391.21,294.93,394.93,295.21,397.9,293.52L397.9,293.52z"/></g><g id="change1_4"><path d="M525.12,160.28c0.22-0.31,0.44-0.61,0.65-0.92c-2.19,1.26-4.39,2.52-6.58,3.77c0.98,0.14,1.96,0.03,2.94-0.31 c0.77-0.33,1.54-0.65,2.31-0.98c1.46-0.86,2.61-2.02,3.47-3.47c0.33-0.77,0.65-1.54,0.98-2.31c0.46-1.72,0.46-3.43,0-5.15 c-0.33-0.77-0.65-1.54-0.98-2.31c-0.86-1.46-2.02-2.61-3.47-3.47c-1.11-0.71-2.31-1.09-3.6-1.15c-1.29-0.29-2.57-0.23-3.86,0.17 c-1.26,0.3-2.36,0.88-3.29,1.73c-1.05,0.68-1.89,1.59-2.49,2.72c-0.71,1.11-1.09,2.31-1.15,3.6c-0.29,1.29-0.23,2.57,0.17,3.86 c0.3,1.26,0.88,2.36,1.73,3.29c0.68,1.05,1.59,1.89,2.72,2.49c0.78,0.52,1.61,0.86,2.5,1.01c-1.77-1.77-3.55-3.55-5.32-5.32 c0.09,0.35,0.18,0.69,0.28,1.04c0.24,0.57,0.48,1.13,0.72,1.7c0.37,0.48,0.74,0.96,1.11,1.44c0.48,0.37,0.96,0.74,1.44,1.11 c0.82,0.52,1.7,0.8,2.64,0.84c0.63,0.17,1.26,0.17,1.89,0c0.64,0,1.24-0.16,1.79-0.49c0.6-0.17,1.13-0.47,1.57-0.91 C524.06,161.77,524.67,161.11,525.12,160.28L525.12,160.28z"/></g><g id="change1_2"><path d="M99.85,290.36c-5.26-6.6-10.48-13.23-15.78-19.79c-5.22-6.47-10.87-12.63-16.29-18.93c-5.48-6.36-11.23-12.49-16.86-18.72 c-5.58-6.16-11.15-12.33-16.73-18.49c-3.18-3.51-6.37-7.01-9.61-10.46c-1.59-1.69-3.28-3.3-5.04-4.82 c-2.25-1.95-4.87-3.45-7.37-5.05c-2.91-1.86-7.49-1.29-9.85,1.27c-2.48,2.71-3.09,6.59-1.27,9.85c0.98,1.76,1.89,3.59,2.96,5.3 c1.38,2.21,3.35,4.49,5.12,6.44c2.85,3.13,5.82,6.15,8.78,9.18c5.8,5.94,11.61,11.87,17.41,17.81c5.86,5.99,11.72,12,17.59,17.98 c5.81,5.92,11.88,11.6,17.83,17.39c6.78,6.6,14.01,12.78,21.04,19.11c2.22,2,5.91,2.35,8.07,0 C102.13,295.94,101.84,292.86,99.85,290.36L99.85,290.36z"/></g><g id="change1_5"><path d="M172.67,271.89c-0.02-1.3,0.04-2.65-0.36-3.91c-0.24-0.75-0.6-1.48-0.9-2.21c-0.66-1.62-1.33-3.24-1.98-4.87 c-1.5-3.78-3.42-7.42-5.17-11.09c-3.09-6.47-6.4-12.82-9.65-19.21c-6.42-12.62-12.82-25.24-19.25-37.86 c-12.97-25.43-25.41-51.12-38.06-76.71c-3.53-7.14-7.03-14.29-10.51-21.46c-1.74-3.58-3.47-7.17-5.2-10.75 c-2.01-4.18-3.98-8.62-7.44-11.79c-2.69-2.47-6.36-3.29-9.78-1.85c-3.11,1.31-5.71,4.64-5.5,8.18c0.09,1.59,0.06,3.3,0.56,4.81 c0.25,0.76,0.62,1.5,0.92,2.24c0.95,2.3,1.86,4.63,2.92,6.87c1.53,3.23,3.07,6.46,4.61,9.69c3.08,6.46,6.19,12.9,9.31,19.34 c6.24,12.87,12.72,25.62,19.28,38.33c13.04,25.27,26.26,50.45,40.25,75.21c3.91,6.93,7.72,13.94,11.89,20.71 c2.13,3.46,4.2,6.96,6.42,10.37c1.06,1.64,2.26,3.2,3.4,4.79c0.57,0.8,1.13,1.6,1.71,2.39c1.15,1.56,2.5,2.57,4.1,3.61 C167.82,279.05,172.73,276.01,172.67,271.89L172.67,271.89z"/></g></g></svg>