<?xml version="1.0" encoding="UTF-8" standalone="no"?><svg xmlns="http://www.w3.org/2000/svg" xmlns:xlink="http://www.w3.org/1999/xlink" fill="#000000" height="49.4" preserveAspectRatio="xMidYMid meet" version="1" viewBox="63.7 109.0 453.8 49.4" width="453.8" zoomAndPan="magnify"><g fill="#0b638b"><g id="change1_1"><path d="M245.24,128.77c-0.09-0.03-0.12-0.08-0.13-0.14c-0.08,0.02-0.15,0.04-0.23,0.06L245.24,128.77z"/><path d="M267.96,124.14c0.02,0,0.03,0,0.05,0c-0.04-0.06-0.09-0.12-0.1-0.19 C267.85,124.06,267.85,124.06,267.96,124.14z"/><path d="M261.7,124.86c-0.1-0.05-0.2-0.12-0.29-0.19C261.41,124.73,261.53,124.8,261.7,124.86z"/><path d="M248.22,129.09c-0.24-0.08-0.49-0.17-0.74-0.27C247.56,128.99,247.84,129.16,248.22,129.09z"/><path d="M262.48,125.14c-0.2-0.1-0.54-0.19-0.79-0.28C261.93,124.98,262.2,125.08,262.48,125.14z"/><path d="M280.46,128.38c-0.14-0.16-0.31-0.33-0.49-0.5c-0.03,0.03-0.08,0.03-0.1,0.08L280.46,128.38z"/><path d="M66.2,145.61c0.47-0.12,0.54-0.26,0.46-0.42C66.59,145.31,66.45,145.45,66.2,145.61z"/><path d="M77.99,144.61c-0.09,0.04-0.17,0.09-0.24,0.15C77.93,144.7,78.04,144.63,77.99,144.61z"/><path d="M70.98,142.47c-0.02-0.08-0.06-0.14-0.11-0.19C70.84,142.34,70.86,142.41,70.98,142.47z"/><path d="M153.3,128.25l-0.29-0.16C153.06,128.18,153.17,128.22,153.3,128.25z"/><path d="M168.91,126.69c0.05,0,0.09,0,0.14,0C169,126.69,168.96,126.69,168.91,126.69z"/><path d="M169.37,126.68c-0.11,0-0.22,0.01-0.33,0.01C169.19,126.69,169.32,126.7,169.37,126.68z"/><path d="M280.51,129.59c0.61,0,1.71,0.7,1.98,0.4c-0.66-0.56-1.32-1.12-2.03-1.6 C281.09,129.11,281.21,129.71,280.51,129.59z"/><path d="M119.48,143.96c0.59-0.07,0.89-0.15,1.03-0.24c-0.35,0.08-0.72,0.14-1.06,0.23L119.48,143.96z"/><path d="M132.88,139.54c-0.02,0.01-0.04,0.03-0.05,0.04c0.03-0.01,0.05-0.02,0.08-0.03L132.88,139.54z"/><path d="M118.44,144.42c-0.07,0.06-0.14,0.13-0.17,0.21C118.49,144.6,118.5,144.52,118.44,144.42z"/><path d="M242.19,130.36c-0.08,0.03-0.15,0.06-0.26,0.08C242.04,130.42,242.12,130.39,242.19,130.36z"/><path d="M131.94,139.03l0.94,0.51c0.12-0.1,0.24-0.2,0.39-0.32C133.41,138.77,132.37,138.87,131.94,139.03z"/><path d="M118.44,144.42c0.22-0.22,0.58-0.37,1.01-0.48l-0.51-0.27C117.74,143.78,118.3,144.17,118.44,144.42z"/><path d="M65.03,144.03c0.59,0.27-1.31,0.95-0.14,0.99l1.09-0.81c-0.16,0.35,0.53,0.69,0.68,0.98 c0.4-0.7-1.57-0.97-0.3-2c0.28-0.43,1.32-0.44,1.85-0.39c-1.18-0.03-0.03-0.62,0.42-0.91c0.74,0.21,1.87-0.02,2.24,0.39 c0.1-0.16,0.64-0.3,1.03-0.26l0.06,0.22c0.84-0.27-0.31-0.19-0.11-0.44c0.61-0.13,1.62,0.26,2.63,0.15 c-1.01,0.12-1.82,0.5-2.52,0.81c1.87,0.23-0.23,1.17-0.59,1.78c1.45-0.4,1.98-0.87,3.16-1.35c1.51,0.33,0.02,1.65-0.34,1.75 c1.31-0.44,2.66-1.29,3.36-1.59c-0.93,0.96-0.73,1.22-1.57,2.01c1.12,0.42,1.28-0.22,1.77-0.6c-0.29,0.11-0.75,0.2-0.88,0.04 c1.28-0.03,0.95-1.36,1.57-2c0.98,0.29,2.79,0.31,2.74,1.11l-0.08-0.85c1.09-0.29,0.61,0.39,0.81,0.65 c0.37-0.61-0.22-1.4,1.63-1.78c-0.18,1.39,1.68-0.02,1.72,1.23c0.87-0.15,1.21-0.88,2.13-0.81c1.06,0.62-1.24,1.8-1.8,1.63 c-1.26,0.14,0.12-0.58-0.38-0.53l-1.18,0.48c0.69,0.21,2.03,0.4,1.92,0.98c1.21-0.36-1.03-0.51,0.29-0.94l0.84,0.25 c1.32-0.43-0.36-0.93,1.38-1.24c-1.12,0.69,1.9-0.15,1.87,0.77c-0.02-1.14,3.13-0.39,3.42-1.34l-0.95-0.18l0.24,0.49 c-1.01,0.11-1.82,0.48-2.88,0.37c0.79-0.48-0.35-0.93,0.57-1.37c1.74-0.82,0.52,0.57,0.78,0.54l1.38-0.72l-1-0.4 c1.09-0.29,2.61-0.45,4.15-0.51c2.31,0.49-0.23,0.65,1.44,1.16c0.71-0.3,0.51-0.57,1.54-0.57c-0.58-0.28-0.98,0.22-1.37,0.2 c-0.55-0.68,1.82-0.48,1.67-1.15c0.44,0.24,0.38,0.53,0.07,0.85c1.71-0.41,3.39-0.41,4.1,0.43l0.69-0.92 c2.99,0.09-1.97,0.94,0.56,1.31c1.03,0.01,2.05-0.1,2.47-0.48l-0.89,0.04c0.65-0.52,0.57-0.86,1.64-1.25 c0.78,0.03,0.41,0.64,1.31,0.09c2.4,0.32,0.82,1.28,0.49,2.11c1.75,0.34-0.76,1.72,0.38,1.27l-0.33-0.17l1.71-1.28 c-1.74-0.85-0.6,0.94-1.33,0.02l-1,0c0.28-0.51,2.61-0.33,2.78-0.9c0.04,0.29-0.16,0.97-1.2,1.08l0.7,1.03 c0.61,0.06,0.96-0.68,1.32-0.22c0.94,0.64-1.24,1.19,0.98,1.32c2.37,0.08,2.14-1.24,3.75-1.16c-0.18-0.23-0.58-0.18-1.08-0.18 c0.5-0.4-0.44-0.63,0.42-0.97c0.54,0.69,2.23,0.54,3.51,0.43c-0.31,0.42,0.54,0.75,0.15,1c0.65-0.14,1.24-0.3,1.5-0.65 c-2.65-0.37,2.5-0.78,0.42-1.37c2.04-0.1,2.48,0.54,3.77,0.85c-0.07,0.23-2.32,0.59-0.49,0.79c2.03-0.89-0.44-1.04,1.13-2.04 l-1.33-0.19c-0.22-0.92,2.26-0.37,2.58-0.59c0.82,0.19-1.11,0.33-0.28,0.91c1.22,0.13,1.79-0.49,2.58-0.19 c-0.71,0.67-0.25,0.4-1.07,1.01c2.83-0.18-0.1,0.74,2.08,1.01c0.68-0.16,0.21-0.68,1.32-0.61c-0.69-0.64-0.62-0.87-2.41-0.78 c0.57-1.02,2.37,0.09,3.58-0.58c-1-0.02-0.32-0.18-1.4,0.04c-0.19-0.81-0.6-0.91,0.34-1.74c-1.15,0.29-1.6,1.21-3.28,1.07 c-0.51-0.81,2-0.77,1.96-1.86c0.8-0.6,2.84-0.26,3.78,0.08c1.58-0.77,3.56-0.89,4.75-1.93c1.19,0.25,4.06-0.83,6.28-0.67 c0.36,0.46,2.73,0.17,1.4,0.77c0.18-0.17,2.01-0.35,1.51-0.76c-0.18,0.17-0.39,0.05-0.79,0.09l0.32-0.62 c1.08,0.2,2.23-0.63,3.27-0.32c0.36,0.47-1.9,0.41-1.19,0.94c0.94-0.95,4.92-1.53,6.22-1.21c0.86,0.08,1,0.83,1.36,0.89l1.43-0.13 c0.18,0.23,0.21,0.52,0.5,0.82c0.72,0.14,1.19-0.13,1.62-0.29c1.9,0.4,0.92,1.06-0.02,1.6l-1.07-0.21 c-0.76,0.37-1.87,0.29-1.19,0.94c0.53-0.1,0.5-0.38,0.68-0.55l0.64,0.36c0.61-0.33,2.34-0.56,2.13-1.08 c1.29,0.33,2.72-0.2,3.87,0.18c-0.79-0.31,0.18-0.57-0.06-0.97l-1.36-0.1c1.08-0.2,2.63-0.66,3.66-0.34 c-0.11,0.34-0.15,0.45,0.38,0.76c-0.75-0.43,1.87-0.68,0.27-1.19c-0.58,0.21-1.12,0.31-1.87,0.29c-0.53-0.71,0.66-0.84,1.31-1.28 c0.83-0.2,2.45-0.5,3.57-0.8c0.72,0.14,0.96,0.95,2.15,0.42c-1.57-0.63,1.42-1.21,1.79-1.94c1.18,0.27,1.88-0.68,2.84-0.13 c-0.47,0.27-2.27,0.32-2.71,0.87c-0.05,0.51,0.45,1.33-1.32,1.67c2.14,0.18,1.24-0.49,2.21-0.73l-0.73,0.1 c0.32-0.22-0.32-0.58,0.33-0.62c2.51,0.09,2.97,0.62,4.69,1.2c-0.39-0.36,0.37-0.73,0.77-0.77c1.64,0.4,0.02,1.09,1.04,1.82 c0.55-0.49,1.66-0.39,1.27-0.75c0.64-0.03,0.32,0.19,0.78,0.32c0.4-0.44,0.88-0.71,1.77-0.72c-0.07,0.23-0.19,0.56-1.05,0.47 c0.97,0.16,1.34,0.92,0.94,1.36l-1.57-0.24c-0.69,0.54,1.47,0.18,1.42,0.69c-0.69,0.14-1.22-0.17-1.65-0.01 c0.46,0.54,1.79-0.04,2.58-0.12c1.26,0.05,0.81,0.61,0.84,0.9c2.1-0.94-2.49-0.91-0.54-1.8c0.73-0.66,2.63-0.63,3.96-0.8 c-1.17-0.68,0.1-1.03,1.47-1.31c-1.8,0.04-0.48-0.82-2.58-0.28l-0.06-0.57c0.9-0.02,1.97,0.2,2.87,0.18 c-0.18,0.16,0.03,0.29-0.26,0.39l2.67-0.34l-0.26,0.39c1.65,0.02,3.69,0.41,4.67,0.17c-0.79,0.08-1.5-0.47-0.67-0.66 c0.48-0.26,1.35-0.56,2.1-0.53c0.41,0.65,3.25,0.56,1.47,1.27c2.31-0.4,1.45-0.5,3.66-0.97l-1.48,0.21 c-0.2-0.52,1.01-1.44-0.42-1.74c1.66-0.38,0.57-1.3,2.81-1.46c0.92,0.3-0.25,1.07-1.5,1.24c0.63,0.02,1.22,0.31,1.86-0.07 c0.49,0.43-1.17,0.8-1.11,0.97c1.15,0-0.03-0.29,1.05-0.46c1.89-0.64,1.23,0.87,3.04,0.45c-0.4,0.04-1.11-0.12-0.64-0.38 c2.45-0.04,1.35-0.56,3.12-0.87c1.02,0.74,0.6,1.58,2.21,1.72l-0.9,0.01c0.63,0.38,1.35,0.53,2,0.51c3.33-0.74,6.07-1.94,9.51-2.6 l-1.23,0.21c-0.42-0.26,1.02-0.34,1-0.63l0.78,0.33c0.2-0.56-1.74-0.5-1.29-1.05c0.11,0.07,0.36,0.08,0.5,0.03l-0.72-0.16 c1.61,0.15,2.88-0.86,4.1,0.01c-3.14,0.16-0.46,1.63-3.53,1.97c1.62-0.25,0.3,0.59,0.47,0.83c0.86,0.11,0.41-0.43,1.38-0.26 c-0.02,0.4-2.08,0.8-1.16,1.08c0.1-0.62,0.95-0.52,1.36-0.95c0.71,0.16-0.01,0.4,0.3,0.59c0.4-0.03,0.62-0.31,0.98-0.23 l-0.26,0.39c1.99,0.52,0.6-0.6,2.85-0.46c0.06-0.51-0.63-0.39-1.57-0.27c-0.49-1.12,2.89-1.25,2.69-2.46 c2.13-0.21-0.56,0.48,1.26,0.77c1.01,0.75-1.33,0.83-1.78,1.38l1.89,0.46c-0.62,0.99-1.79,0.69-2.12,1.58 c1.4,0.03,1.23-0.21,2.65-0.58c-2.31-0.72,0.99-0.62-0.33-1.57c1.07,0.24,0.74,0.45,2.28,0.43c-0.98,0.22-0.03,0.8-1.33,0.83 c2.09-0.1,1.52-0.3,3.61-0.4c0.64-0.7-2.12-0.88,0.39-1.41c0.54-0.01,0.44,0.25,0.12,0.25c1.8,0.25-0.38-0.86,0.75-1.23 c0.78-0.09,1.07,0.18,0.75,0.35c1.17-0.4,0.52-0.85,1.3-1.02l-0.36-0.08c0.33-0.2-0.59-1.19,1.1-1.24 c1.24-0.01,0.85,0.39,0.88,0.62c0.96-0.24,1.7-0.05,2.36,0.19c-0.07-0.14,0.01-0.27,0.3-0.28c1.63-0.23,0.94,0.58,1.55,0.68 c2.33,0.33-0.3-1.28,2.3-1.33l-3.02-0.21c0.12-0.34,0.19-0.85-0.46-0.84c-0.06,0.51-1.13,0.95-2.13,0.88 c-0.29-0.59,2.7-0.67,1-1.31c0.61,0.1,1.45-0.07,2.2-0.02c-0.75,0.64,2.41,0.11,1.11,0.82c3.3-0.17,3.75,0.25,6.81-0.21 c-0.29,0.38-2.23,1.38-3.79,1.11l-0.13-0.35c-1.97,0.44,1.53,0.39,1.18,1c2.43-0.98,5.42,0.43,8.48,0.28 c-0.52-0.36,0.1-0.51,0.26-0.83c-1.25,0.01-1.04,0.14-1.93-0.3c0.19-0.44,0.93-0.24,1.35-0.53c0.36-0.47-0.95-0.07-1.38-0.34 c1.2-0.21,1.1-0.27,1.84-0.64c0.64,0.43,0.54,0.65,1.02,1.13c2.98,0.39,2.77-0.52,5.24,0.09c-1.37-0.36,0.55,0.62-0.92,0.17 l0.82,0.21c-2.27,0.24-5.78-0.06-5.51,1.14c1.65,0.02,2.94-0.5,5.01-0.15l-0.13,0.2c1.48,0.33,0.03-0.29,0.42-0.42 c1.79-0.04,1.89,1.57,3.26,1.11c-0.55-0.23-1.1-0.46-1.66-0.64c1.42-0.15-0.36-0.17,0.14-0.86c2.52-0.03,6.6,1.79,9.95,3.69 c-0.64-0.99-0.91-1.19-2.14-1.96c1.09-0.57,1.57-0.1,1.39-1.27c-0.53-0.36-1.08-0.66-1.63-0.96l0.42-0.88 c0.48,0.24,0.93,0.5,1.29,0.84c0.27-0.2,0.89,0.24,1.49,0.67c0.58,0.46,1.13,0.94,1.36,0.74c-0.48-0.31-0.95-0.64-1.45-0.92 c-0.22-0.43,0.09-0.38,0.6-0.13c0.5,0.26,1.18,0.72,1.72,1.03c-0.55-1.22-3.15-2.27-5.32-3.2c-0.02,0.37-2.4,0.11-0.4,1.09 c-0.2,0.32-1.48,0.01-2.26-0.32c0.5-0.02-1.2-1.59,0.82-1.13c-1.01-0.16-1.21-0.2-1.43-0.32c-0.22-0.1-0.46-0.28-1.51-0.47 c0.19-0.07-0.71-0.37-1.58-0.64c-0.87-0.29-1.73-0.62-1.53-1c-0.7,0.24-0.24,1.19-2.48,0.87c0.45,0.63,2.91,1.21,1.13,1.51 l1.15-0.17c1.49,0.62-0.54,0.49,1.4,1.2c-0.58-0.18-1.83-0.15-2.01-0.59c0.13,0.66-0.63,0.66-1.44,0.63 c-0.8-0.01-1.67-0.07-1.77,0.38c-0.36-0.41-0.92-0.53-1.95-0.52c0.17-0.32-0.37-0.69,0.45-0.86c0.66,0.17,1.17,0.09,1.88,0.46 c-0.12-0.64-0.8-0.81-1.66-0.89c-0.85-0.05-1.87,0.01-2.71-0.16c0.23,0.11,0.29,0.23-0.19,0.38c-1.03-0.25-3.27-0.52-2.61-1.09 c-1.72,0.01-3.4,0.06-5,0.12c-0.02-0.29,0.69-0.13,0.99-0.22l-2.71-0.01c-0.63-0.39,0.92-0.4,1.19-0.78l-1.95,0.04l0.27-0.38 c-0.48,0.25-2.73,0.38-3.27-0.23c-2.14,0.2-2.09,1.46-4.99,0.92c0.1-0.62,1.64-0.23,2.3-0.64c-0.57-0.21-2.29,0.24-2.58-0.35 c-2.08,0.38-1.84,1.49-2.84,2.11c-1.7,0.06-0.19-0.53-0.26-0.7c-0.5-0.03-1.31,1.12-1.78,0.29c-0.81,0.46-1.27,1.01-0.05,1.2 c-0.9,0-2.18,0.32-2.4,0.59c0.72-0.93-1.03-0.35-1.14-1.11c-1.37-0.14-4.39-0.34-5.65,0.68l0.37-1.01l-1.59,0.14 c-1.2-0.59,1.4-0.66,2.19-0.73c-2.16-0.07-3.61,0.02-5.56,0.08c0.57,0.2,0.24,0.41,0.51,0.72c-0.66,0.42-1.59,0.14-2.28,0.27 c-0.17-0.24-0.09-0.46,0.45-0.55l-1.34,0.15c0.1-0.62-0.56-0.61,0.76-1.04l-1.23,0.21c-1.37-0.14,0.05-0.51,0.38-0.72l-2.16-0.07 c-0.77,0.36,0.45,0.54-1.04,0.74c-2-0.51-4.54-0.24-6.81-0.36l1.61,0.54c-1.37-0.13-1.07,0.86-1.48,1.3 c-1.26-0.07-2.96,0.01-4.03-0.21c1.2-0.51,0.69-1.22-0.46-1.63c-2.56-0.01-1.91,1.05-3.32,1.44c1.08-1.27-1.79-0.37-1.56-1.05 c-3.25,0.14-6.51,0.65-9.87,0.74c0.07,0.18,1.04,0.33,0.46,0.53c-1.23,0.24-1.83-0.25-2.01-0.49c-1.59,0.16-2.5,0.58-3.01,0.96 c0.69-0.14,0.76,0.03,0.64,0.37c-1.59,0.16-1.17-0.68-2.67-0.06c-0.42-0.65,1.67-0.39,1.5-1.03c-1.41,0-2.28,0.31-3.3,0.66 c-0.25-0.41,0.94-0.13,0.15-0.45c-2.17,0.36-4.77,0.91-6.4,1.19l-0.46-0.53c-1.05,0.08-1.73,0.22-2.21,0.49 c-0.57-0.19-0.14-0.35,0.4-0.44c-1.41,0.01-3.11,0.51-3.9,0.6c0.11-0.34,0.79-0.08,1.02-0.36c-1.77-0.07-3.94,1.12-5.12,0.46 c0.15-0.1,0.32-0.12,0.47-0.13c-2.61,0.08-4.86,0.58-7.69,0.76c-2.62-0.54-0.8,0.89-3.35,0.93c-0.09-1.48-3.48,0.08-4.57-0.14 l0.35,0.2c-1.23,0.66-2.99,0.21-3.89-0.16c-1.91,0-4.76,0.18-6.63,0.88l0.36-0.33c-1.55,0.48-2.56,0.06-4.11,0.55 c0.04-0.11,0.61-0.33,0-0.4c-7.6-0.03-15.27,1.4-22.83,1.74c-14.47,0.6-32.49,1.74-46.58,4.16 C69.98,134.88,63.79,141.62,65.03,144.03z"/><path d="M240.69,131.24c-0.07-0.01-0.13-0.02-0.2-0.03C240.57,131.23,240.63,131.24,240.69,131.24z"/><path d="M206.75,131.26c0.16,0,0.32-0.01,0.48-0.03C207.08,131.22,206.92,131.22,206.75,131.26z"/><path d="M177.88,134.23l0.6-0.08C178.22,134.17,178.03,134.2,177.88,134.23z"/><path d="M134.17,139.18c0.25,0.4-0.89,1.24,0.15,1.55c3.58-0.18,1.43-1.75,5.12-1.85l-1.9-0.38 c0.14,0.75-1.15,1.23-2.58,1.38l-0.47-0.52c0.24-0.18,0.49-0.32,0.76-0.46C134.7,138.87,134.83,139.3,134.17,139.18z"/><path d="M135.38,138.91c-0.03-0.01-0.06-0.02-0.09-0.03c-0.01,0.01-0.03,0.01-0.05,0.02 C135.29,138.91,135.33,138.9,135.38,138.91z"/></g><g id="change1_3"><path d="M479.61,117.95c-0.11-0.02-0.14-0.07-0.15-0.13c-0.09,0.03-0.17,0.05-0.25,0.07L479.61,117.95z"/><path d="M503.54,111.25c0.01,0,0.02,0,0.04-0.01c-0.05-0.05-0.11-0.1-0.12-0.17 C503.42,111.19,503.42,111.19,503.54,111.25z"/><path d="M497.47,112.83c-0.11-0.05-0.22-0.1-0.32-0.16C497.17,112.73,497.3,112.78,497.47,112.83z"/><path d="M482.95,118.05c-0.27-0.06-0.56-0.14-0.84-0.21C482.21,118,482.54,118.14,482.95,118.05z"/><path d="M498.31,113.03c-0.22-0.08-0.57-0.13-0.84-0.2C497.73,112.94,498.01,113,498.31,113.03z"/><path d="M515.09,110.74c-0.17-0.06-0.35-0.11-0.55-0.15c-0.01,0.04-0.04,0.07-0.04,0.12L515.09,110.74z"/><path d="M279.79,138.7c0.51,0.38,0.67,0.35,0.72,0.17C280.35,138.88,280.13,138.84,279.79,138.7z"/><path d="M292.48,147.05c-0.12-0.02-0.24-0.02-0.35-0.01C292.36,147.08,292.53,147.09,292.48,147.05z"/><path d="M286.42,140.56c0.03-0.07,0.04-0.15,0.02-0.22C286.37,140.36,286.35,140.43,286.42,140.56z"/><path d="M377.23,129.52l-0.35-0.11C376.95,129.49,377.08,129.52,377.23,129.52z"/><path d="M394.32,125.22c0.05-0.01,0.1-0.02,0.15-0.03C394.42,125.2,394.37,125.21,394.32,125.22z"/><path d="M394.83,125.13c-0.12,0.02-0.24,0.04-0.36,0.07C394.63,125.17,394.77,125.16,394.83,125.13z"/><path d="M515.69,111.72c0.42-0.33,1.48-0.46,1.49-0.87l-2.08-0.12C515.84,111.01,516.23,111.43,515.69,111.72z"/><path d="M342.31,151.71c0.67-0.18,1-0.31,1.15-0.43c-0.4,0.14-0.8,0.28-1.19,0.42L342.31,151.71z"/><path d="M356.62,144.68c-0.02,0.02-0.03,0.04-0.05,0.05c0.03-0.01,0.05-0.03,0.09-0.04L356.62,144.68z"/><path d="M341.17,152.35c-0.07,0.08-0.15,0.15-0.17,0.24C341.25,152.52,341.25,152.44,341.17,152.35z"/><path d="M476.31,119.77c-0.09,0.04-0.17,0.07-0.29,0.11C476.15,119.84,476.24,119.81,476.31,119.77z"/><path d="M355.51,144.36l1.12,0.31c0.11-0.12,0.23-0.24,0.37-0.4C357.07,143.8,355.95,144.11,355.51,144.36z"/><path d="M341.17,152.35c0.23-0.26,0.63-0.46,1.1-0.65l-0.63-0.18C340.27,151.83,340.98,152.12,341.17,152.35z"/><path d="M279.99,136.58c0.29,0.73-1.87-0.65-0.89,0.49l1.56,0.51c-0.41,0.07-0.08,0.95-0.15,1.29 c0.86-0.09-0.6-2.11,1.25-1.6c0.55-0.03,1.47,0.83,1.9,1.32c-1.01-1.02,0.43-0.45,1-0.29c0.52,0.73,1.7,1.45,1.79,2.03 c0.2-0.06,0.81,0.24,1.15,0.55l-0.08,0.21c0.97,0.4-0.18-0.37,0.17-0.43c0.33,0.17,0.67,0.52,1.08,0.89 c0.41,0.36,0.87,0.75,1.41,1.03c-1.08-0.56-2.11-0.81-2.98-1.1c1.7,1.57-0.94,0.75-1.72,0.94c0.87,0.4,1.51,0.61,2.11,0.77 c0.61,0.15,1.2,0.24,1.94,0.45c1.38,1.31-0.91,1.38-1.38,1.2c1.66,0.61,3.59,0.68,4.49,0.85c-1.5,0.26-1.43,0.6-2.78,0.72 c1.02,1.07,1.56,0.65,2.29,0.61c-0.39-0.07-0.94-0.3-0.99-0.51c1.44,0.79,1.76-0.61,2.74-0.81c0.91,0.83,2.95,1.73,2.54,2.43 l0.27-0.81c1.35,0.28,0.53,0.65,0.64,0.99c0.67-0.4,0.34-1.37,2.56-0.92c-0.73,1.24,1.91,0.65,1.53,1.84 c1.06,0.2,1.69-0.38,2.74-0.01c1.07,0.94-2.02,1.32-2.64,0.91c-1.53-0.36,0.34-0.5-0.27-0.65l-1.55-0.02 c0.73,0.47,2.26,1.18,1.93,1.68c1.56,0.13-1.06-0.89,0.65-0.78l0.92,0.52c1.7,0.03-0.13-1,2.01-0.72 c-1.53,0.34,2.29,0.4,2.02,1.27c0.25-1.08,3.86,0.37,4.4-0.54l-1.09-0.36l0.2,0.52c-1.22-0.11-2.29,0.07-3.52-0.32 c1.05-0.25-0.19-0.99,1.01-1.18c2.22-0.4,0.49,0.68,0.79,0.71c0.6-0.13,1.19-0.25,1.78-0.39c-0.37-0.19-0.73-0.41-1.09-0.62 c0.67-0.01,1.45,0.01,2.29,0.05c0.84,0.06,1.74,0.13,2.64,0.19c2.66,0.8-0.36,0.63,1.55,1.33c0.88-0.24,0.67-0.52,1.9-0.42 c-0.66-0.33-1.18,0.13-1.65,0.08c-0.58-0.73,2.21-0.31,2.08-0.99c0.5,0.26,0.41,0.55,0.01,0.85c2.05-0.3,4-0.29,4.83,0.55 l0.82-0.93c3.51,0.03-2.33,0.99,0.65,1.3c1.23,0,2.42-0.17,2.91-0.58l-1.05,0.08c0.75-0.56,0.66-0.89,1.89-1.33 c0.91-0.03,0.5,0.61,1.52-0.01c2.8,0.12,1.03,1.22,0.68,2.07c2.1,0.19-0.81,1.79,0.52,1.24l-0.4-0.15 c0.66-0.47,1.3-0.96,1.94-1.44c-2.1-0.67-0.65,1.01-1.56,0.16l-1.19,0.08c0.31-0.52,3.05-0.57,3.21-1.17 c0.07,0.28-0.12,0.99-1.33,1.21l0.89,0.96c0.73-0.01,1.08-0.78,1.55-0.37c1.16,0.51-1.37,1.35,1.27,1.19 c2.81-0.25,2.39-1.54,4.27-1.72c-0.24-0.2-0.68-0.08-1.27-0.01c0.53-0.47-0.58-0.57,0.38-1.03c0.7,0.59,2.64,0.17,4.09-0.17 c-0.3,0.47,0.72,0.65,0.31,0.97c0.73-0.25,1.38-0.52,1.62-0.92c-3.07,0.14,2.72-1.24,0.27-1.43c2.3-0.48,2.88,0.05,4.38,0.09 c-0.03,0.24-2.52,1.06-0.42,0.89c2.13-1.3-0.66-0.93,0.92-2.25l-1.51,0.08c-0.4-0.86,2.45-0.82,2.77-1.11 c0.94,0.01-1.18,0.55-0.16,0.96c1.37-0.12,1.9-0.86,2.83-0.72c-0.67,0.81-0.21,0.44-1.01,1.22c3.1-0.77,0.02,0.75,2.47,0.56 c0.72-0.3,0.12-0.72,1.35-0.88c-0.86-0.49-0.83-0.73-2.78-0.27c0.45-1.13,2.62-0.4,3.83-1.31c-1.1,0.19-0.39-0.11-1.53,0.32 c-0.35-0.76-0.82-0.78,0.07-1.79c-1.21,0.52-1.55,1.52-3.43,1.74c-0.7-0.69,2.08-1.18,1.84-2.24c0.77-0.75,3.07-0.85,4.16-0.69 c1.6-1.07,3.75-1.6,4.87-2.87c1.34,0,4.31-1.65,6.79-1.89c0.47,0.39,3.03-0.35,1.66,0.5c0.17-0.2,2.15-0.73,1.54-1.05 c-0.17,0.2-0.43,0.12-0.85,0.25l0.25-0.67c1.21-0.01,2.35-1.05,3.54-0.95c0.46,0.39-2.03,0.77-1.16,1.16 c0.87-1.14,5.18-2.41,6.65-2.33c0.96-0.08,1.22,0.64,1.63,0.64l1.56-0.39c0.23,0.2,0.31,0.48,0.67,0.72 c0.81,0,1.28-0.35,1.74-0.58c2.15,0.08,1.17,0.89,0.22,1.59l-1.21-0.02c-0.78,0.51-2.01,0.62-1.17,1.14 c0.57-0.19,0.49-0.47,0.67-0.67l0.76,0.24c0.62-0.44,2.49-0.95,2.18-1.43c1.46,0.1,2.97-0.66,4.28-0.48 c-0.91-0.17,0.12-0.59-0.21-0.95l-1.51,0.13c1.16-0.38,2.8-1.1,3.99-0.96c-0.08,0.35-0.1,0.47,0.53,0.68 c-0.88-0.3,1.97-0.99,0.13-1.23c-0.6,0.31-1.19,0.49-2.02,0.6c-0.68-0.61,0.61-0.94,1.26-1.49c0.88-0.35,2.64-0.88,3.83-1.36 c0.81,0.02,1.19,0.79,2.43,0.07c-1.82-0.37,1.4-1.42,1.72-2.21c1.34,0.08,1.99-0.98,3.12-0.58c-0.49,0.33-2.47,0.68-2.88,1.3 c0.02,0.52,0.67,1.25-1.23,1.87c2.39-0.17,1.3-0.68,2.34-1.08l-0.79,0.21c0.33-0.27-0.43-0.53,0.28-0.66 c2.79-0.32,3.37,0.16,5.34,0.48c-0.48-0.3,0.32-0.78,0.75-0.88c1.87,0.16,0.16,1.08,1.38,1.65c0.54-0.57,1.79-0.64,1.31-0.93 c0.71-0.13,0.37,0.14,0.9,0.2c0.39-0.5,0.88-0.83,1.87-0.99c-0.05,0.23-0.14,0.59-1.1,0.62c1.09,0.01,1.6,0.71,1.21,1.21l-1.76,0 c-0.7,0.64,1.64-0.04,1.65,0.47c-0.74,0.25-1.36,0.02-1.82,0.24c0.57,0.46,1.97-0.31,2.83-0.51c1.39-0.12,0.97,0.49,1.04,0.77 c2.21-1.23-2.86-0.55-0.81-1.71c0.73-0.75,2.84-0.99,4.29-1.34c-1.37-0.52-0.01-1.03,1.47-1.5c-1.98,0.29-0.63-0.75-2.89,0.07 l-0.13-0.56c1-0.14,2.21-0.07,3.2-0.21c-0.18,0.19,0.07,0.28-0.24,0.42l2.92-0.71l-0.25,0.42c1.83-0.22,4.13-0.08,5.19-0.44 c-0.87,0.18-1.71-0.28-0.81-0.57c0.5-0.32,1.43-0.73,2.27-0.79c0.53,0.59,3.67,0.14,1.77,1.08c2.52-0.69,1.55-0.7,3.95-1.41 l-1.62,0.38c-0.28-0.5,0.97-1.56-0.65-1.67c1.81-0.59,0.5-1.35,2.98-1.79c1.05,0.19-0.16,1.1-1.54,1.41 c0.71-0.05,1.38,0.16,2.06-0.29c0.59,0.37-1.22,0.93-1.13,1.1c1.28-0.13-0.06-0.28,1.12-0.58c2.03-0.87,1.46,0.72,3.43,0.09 c-0.44,0.08-1.24,0.01-0.74-0.3c2.71-0.33,1.44-0.72,3.38-1.23c1.21,0.62,0.81,1.49,2.62,1.47l-0.99,0.1 c0.74,0.31,1.55,0.39,2.27,0.3c3.63-1.06,6.57-2.62,10.35-3.58l-1.35,0.33c-0.49-0.21,1.11-0.44,1.06-0.72l0.89,0.26 c0.18-0.58-1.99-0.34-1.53-0.92c0.12,0.06,0.41,0.04,0.56-0.02l-0.81-0.09c1.81,0,3.14-1.13,4.58-0.38 c-3.49,0.46-0.38,1.67-3.77,2.3c1.79-0.4,0.38,0.56,0.59,0.78c0.97,0.03,0.42-0.47,1.51-0.39c0.01,0.4-2.25,0.99-1.2,1.18 c0.05-0.63,1.02-0.6,1.44-1.08c0.81,0.09,0.02,0.4,0.39,0.56c0.44-0.07,0.67-0.37,1.07-0.32l-0.26,0.41 c2.26,0.33,0.61-0.65,3.14-0.73c0.02-0.51-0.73-0.32-1.77-0.11c-0.64-1.07,3.12-1.53,2.8-2.72c2.36-0.39-0.59,0.52,1.47,0.66 c1.18,0.67-1.42,0.94-1.88,1.53l2.14,0.3c-0.61,1.04-1.94,0.83-2.23,1.77c1.56-0.1,1.35-0.32,2.9-0.81 c-2.62-0.52,1.06-0.71-0.49-1.53c1.21,0.15,0.85,0.38,2.57,0.24c-1.07,0.31,0.02,0.8-1.42,0.94c2.32-0.27,1.67-0.43,3.99-0.7 c0.67-0.76-2.43-0.7,0.33-1.44c0.6-0.06,0.51,0.21,0.15,0.24c2.02,0.1-0.48-0.83,0.75-1.29c0.87-0.16,1.2,0.09,0.86,0.28 c1.28-0.5,0.52-0.9,1.38-1.12l-0.4-0.06c0.36-0.23-0.75-1.14,1.15-1.32c1.38-0.1,0.98,0.32,1.03,0.55 c1.06-0.32,1.9-0.17,2.65,0.02c-0.08-0.13-0.01-0.27,0.31-0.3c1.81-0.36,1.09,0.51,1.78,0.56c2.62,0.16-0.41-1.26,2.49-1.5 l-3.39,0.02c0.12-0.34,0.15-0.86-0.57-0.8c-0.03,0.52-1.2,1.04-2.33,1.04c-0.37-0.57,2.98-0.88,1.03-1.38 c0.69,0.05,1.62-0.18,2.46-0.19c-0.8,0.69,2.71-0.07,1.3,0.74c3.67-0.42,4.24,0.02,7.59-0.65c-0.28,0.4-2.38,1.53-4.15,1.34 l-0.17-0.34c-2.17,0.56,1.74,0.3,1.38,0.92c2.66-1.11,6.04,0.08,9.34-0.42c-0.6-0.3,0.05-0.51,0.17-0.85 c-1.33,0.14-1.09,0.26-2.1-0.1c0.16-0.46,0.97-0.32,1.38-0.66c0.33-0.51-1.01,0.04-1.5-0.2c1.26-0.32,1.13-0.38,1.87-0.82 c0.72,0.36,0.64,0.59,1.2,1c3.15-0.05,2.76-0.91,5.3-0.86c-1.41-0.03,0.68,0.47-0.86,0.38l0.85,0.02 c-2.15,0.81-5.91,0.96-5.48,2.12c1.77-0.19,3.03-0.91,5.21-1.04l-0.08,0.23c1.57-0.02-0.04-0.29,0.33-0.51 c1.74-0.48,2.32,1.02,3.5,0.15l-1.81-0.12c1.34-0.54-0.4-0.07-0.11-0.86c2.4-0.67,6.59-0.41,10.01-1.09 c-1-0.38-1.28-0.39-2.58-0.38c0.56-1.07,1.08-0.94,0.42-1.82l-1.58,0l-0.05-0.97c0.43-0.03,0.86,0.01,1.25,0.09 c0.2-0.62,2.41,0.11,2.5-0.48l-1.34,0.13c-0.68-0.48,0.91-0.48,1.85-0.68c-0.91-0.6-2.93,0.13-4.84,0.24 c0.15,0.35-1.74,1.14,0.13,1.15c-0.01,0.4-1.11,0.65-1.85,0.68c0.38-0.22-1.47-1.02,0.24-1.37c-1.64,0.52-0.73,0.03-2.57,0.31 c0.25-0.29-3.21,0.14-3.03-0.71c-0.57,0.39,0.08,1.24-2.05,1.38c0.54,0.56,2.92,0.54,1.35,1.24l1.02-0.44 c1.49,0.2-0.38,0.62,1.56,0.78c-0.57-0.02-1.71,0.37-1.98-0.04c0.55,1.21-2.84,0.74-2.9,1.66c-0.44-0.35-1.01-0.36-2.06-0.21 c0.13-0.34-0.47-0.64,0.34-0.91c0.69,0.07,1.17-0.09,1.94,0.15c-0.47-1.21-2.77-0.26-4.54-0.44c0.25,0.09,0.33,0.2-0.15,0.4 c-1.09-0.15-3.48-0.2-2.83-0.84l-5.43,0.48c-0.04-0.29,0.77-0.17,1.09-0.28l-3.04,0.15c-0.73-0.35,1.01-0.45,1.29-0.85l-2.19,0.16 l0.28-0.4c-0.52,0.27-3.04,0.59-3.69,0.01c-2.39,0.36-2.25,1.62-5.54,1.29c0.07-0.63,1.82-0.35,2.54-0.82 c-0.65-0.17-2.55,0.41-2.92-0.15c-2.3,0.53-1.96,1.63-3.04,2.33c-1.9,0.21-0.25-0.51-0.34-0.68c-0.57,0.01-1.39,1.23-1.97,0.44 c-0.88,0.53-1.35,1.11,0.03,1.2c-1.01,0.08-2.41,0.5-2.65,0.8c0.74-0.99-1.18-0.26-1.36-1c-1.54-0.04-4.94,0.08-6.27,1.21 l0.33-1.04l-1.77,0.29c-1.39-0.47,1.51-0.79,2.4-0.94c-2.43,0.14-4.04,0.36-6.22,0.6c0.66,0.15,0.3,0.39,0.64,0.67 c-0.71,0.48-1.77,0.29-2.53,0.5c-0.21-0.22-0.14-0.45,0.46-0.59l-1.48,0.3c0.05-0.63-0.68-0.54,0.76-1.12l-1.36,0.35 c-1.54,0.01,0.01-0.52,0.37-0.76l-2.43,0.17c-0.83,0.44,0.55,0.49-1.09,0.85c-2.29-0.3-5.11,0.23-7.65,0.4l1.85,0.35 c-1.54,0.03-1.12,0.98-1.53,1.47c-1.42,0.08-3.3,0.37-4.52,0.27c1.29-0.65,0.64-1.3-0.68-1.57c-2.87,0.28-2.02,1.28-3.57,1.84 c1.07-1.4-2.04-0.14-1.85-0.84c-3.62,0.55-7.2,1.49-10.93,2.06c0.1,0.17,1.2,0.18,0.57,0.47c-1.34,0.4-2.07,0.01-2.3-0.21 c-1.76,0.38-2.72,0.92-3.25,1.37c0.75-0.24,0.85-0.07,0.76,0.28c-1.75,0.38-1.39-0.51-2.98,0.33c-0.55-0.58,1.81-0.64,1.55-1.25 c-1.57,0.21-2.5,0.65-3.59,1.16c-0.33-0.37,1.03-0.27,0.11-0.47c-2.36,0.72-5.21,1.59-6.98,2.14l-0.58-0.45 c-1.15,0.25-1.9,0.5-2.39,0.85c-0.66-0.1-0.2-0.33,0.39-0.5c-1.56,0.23-3.39,1.01-4.26,1.23c0.08-0.35,0.87-0.21,1.08-0.52 c-1.97,0.22-4.23,1.74-5.63,1.29c0.15-0.12,0.33-0.17,0.51-0.21c-2.88,0.52-5.31,1.41-8.43,2.07c-2.99-0.05-0.75,1.03-3.58,1.54 c-0.32-1.45-3.84,0.71-5.08,0.69l0.42,0.13c-1.26,0.86-3.28,0.76-4.33,0.58c-2.11,0.38-5.23,1.09-7.19,2.14l0.34-0.4 c-1.64,0.77-2.81,0.58-4.45,1.37c0.02-0.12,0.62-0.45-0.07-0.4c-8.44,1.45-16.54,4.67-24.61,6.1c-7.71,1.36-16.35,2.36-24.59,1.64 c-4.14-0.33-8.19-1.1-11.98-2.21c-3.77-1.14-7.27-2.64-10.34-4.42c0,0-0.57,0.08-1.43,0.19c-0.89,0.14-2.07,0.27-3.32,0.42 c-1.27,0.18-2.56,0.32-3.62,0.58C281.03,135.52,280.21,135.92,279.99,136.58z"/><path d="M474.7,120.77c-0.07,0-0.14-0.01-0.23-0.01C474.56,120.78,474.63,120.78,474.7,120.77z"/><path d="M436.93,124.27c0.18-0.02,0.35-0.05,0.53-0.09C437.28,124.19,437.11,124.21,436.93,124.27z"/><path d="M405.28,131.24l0.66-0.18C405.65,131.12,405.44,131.18,405.28,131.24z"/><path d="M357.97,144.05c0.35,0.35-0.76,1.41,0.43,1.49c3.89-0.88,1.26-2.01,5.29-2.85l-2.14,0.01 c0.28,0.71-1.04,1.45-2.59,1.88l-0.6-0.42c0.23-0.22,0.48-0.42,0.75-0.6C358.5,143.64,358.72,144.03,357.97,144.05z"/><path d="M359.26,143.55c-0.03,0-0.07-0.01-0.1-0.01c-0.01,0.01-0.03,0.02-0.05,0.03 C359.16,143.56,359.2,143.55,359.26,143.55z"/></g><g id="change1_2"><path d="M265.1,135.28c-0.09-0.04-0.11-0.09-0.12-0.15c-0.08,0.01-0.15,0.02-0.24,0.04L265.1,135.28z"/><path d="M287.7,133.15c0.01,0,0.02,0,0.04,0c-0.03-0.06-0.07-0.13-0.07-0.19C287.6,133.06,287.6,133.06,287.7,133.15z"/><path d="M281.91,133.36c-0.09-0.07-0.17-0.14-0.25-0.23C281.66,133.2,281.77,133.28,281.91,133.36z"/><path d="M268.05,135.86c-0.23-0.11-0.47-0.22-0.71-0.34C267.4,135.7,267.66,135.89,268.05,135.86z"/><path d="M282.62,133.73c-0.18-0.12-0.48-0.25-0.7-0.37C282.12,133.52,282.36,133.64,282.62,133.73z"/><path d="M298.1,135.62c-0.13-0.1-0.28-0.21-0.44-0.31c-0.02,0.04-0.06,0.06-0.07,0.11L298.1,135.62z"/><path d="M88.31,158.33c0.48-0.16,0.54-0.31,0.44-0.46C88.69,158,88.56,158.14,88.31,158.33z"/><path d="M100.11,155.95c-0.08,0.05-0.15,0.11-0.22,0.18C100.05,156.04,100.16,155.96,100.11,155.95z"/><path d="M92.87,154.7c-0.03-0.07-0.07-0.13-0.13-0.18C92.71,154.59,92.74,154.65,92.87,154.7z"/><path d="M173.72,138.18l-0.3-0.15C173.48,138.12,173.59,138.16,173.72,138.18z"/><path d="M189.05,135.96c0.05,0,0.09-0.01,0.14-0.01C189.14,135.95,189.1,135.96,189.05,135.96z"/><path d="M189.51,135.92c-0.11,0.01-0.21,0.02-0.32,0.03C189.33,135.94,189.45,135.95,189.51,135.92z"/><path d="M298.33,136.73c0.47-0.19,1.44-0.02,1.57-0.4l-1.8-0.71C298.68,136.09,298.89,136.6,298.33,136.73z"/><path d="M140.29,154.39c0.6-0.06,0.89-0.14,1.04-0.24c-0.36,0.07-0.73,0.14-1.07,0.22L140.29,154.39z"/><path d="M153.73,149.96c-0.02,0.01-0.04,0.03-0.05,0.04c0.03-0.01,0.05-0.02,0.08-0.03L153.73,149.96z"/><path d="M139.25,154.84c-0.07,0.06-0.14,0.13-0.18,0.21C139.29,155.02,139.3,154.94,139.25,154.84z"/><path d="M261.93,136.63c-0.09,0.02-0.16,0.05-0.27,0.07C261.79,136.69,261.87,136.67,261.93,136.63z"/><path d="M152.78,149.45l0.94,0.5c0.12-0.1,0.24-0.2,0.39-0.32C154.25,149.18,153.21,149.29,152.78,149.45z"/><path d="M139.25,154.84c0.23-0.22,0.59-0.36,1.02-0.47l-0.51-0.28C138.54,154.19,139.11,154.59,139.25,154.84z"/><path d="M86.98,156.86c0.63,0.22-1.29,1.06-0.07,1l1.06-0.9c-0.14,0.36,0.6,0.64,0.79,0.91 c0.35-0.74-1.69-0.83-0.47-1.96c0.25-0.46,1.3-0.56,1.84-0.57c-1.19,0.09-0.08-0.62,0.33-0.94c0.77,0.14,1.88-0.22,2.29,0.14 c0.08-0.18,0.61-0.37,1-0.38l0.08,0.21c0.8-0.37-0.33-0.15-0.16-0.43c0.59-0.2,1.65,0.07,2.63-0.18 c-0.98,0.24-1.75,0.72-2.41,1.11c1.9,0-0.08,1.19-0.38,1.84c1.42-0.57,1.89-1.1,3-1.72c1.54,0.14,0.23,1.64-0.12,1.78 c1.26-0.6,2.48-1.61,3.13-2.01c-0.79,1.07-0.56,1.31-1.29,2.19c1.16,0.27,1.24-0.39,1.67-0.82c-0.27,0.14-0.72,0.3-0.86,0.15 c1.26-0.2,0.76-1.48,1.29-2.19c1,0.16,2.77-0.04,2.82,0.76l-0.19-0.83c1.03-0.43,0.64,0.31,0.86,0.55 c0.27-0.64-0.39-1.37,1.33-1.94c-0.02,1.4,1.59-0.17,1.76,1.07c0.8-0.22,1.07-0.97,1.95-0.96c1.05,0.55-1.04,1.86-1.57,1.75 c-1.17,0.23,0.06-0.59-0.41-0.5l-1.05,0.57c0.67,0.14,1.94,0.23,1.88,0.82c1.09-0.45-1.01-0.43,0.18-0.96l0.8,0.19 c1.21-0.51-0.41-0.91,1.21-1.32c-1.02,0.75,1.8-0.25,1.82,0.67c-0.08-1.14,2.95-0.52,3.21-1.45l-0.92-0.16l0.25,0.48 c-0.96,0.14-1.72,0.54-2.74,0.47c0.73-0.51-0.39-0.91,0.48-1.39c1.64-0.89,0.53,0.55,0.77,0.51l1.3-0.76l-0.99-0.37 c1.05-0.33,2.51-0.53,4.01-0.6c2.26,0.48-0.21,0.65,1.41,1.15c0.68-0.31,0.49-0.57,1.5-0.56c-0.56-0.28-0.95,0.21-1.33,0.2 c-0.54-0.68,1.77-0.48,1.62-1.14c0.43,0.24,0.37,0.53,0.07,0.85c1.67-0.4,3.32-0.38,4,0.47l0.69-0.91 c2.93,0.15-1.95,0.9,0.53,1.32c1.01,0.03,2.01-0.05,2.44-0.42l-0.88,0.01c0.65-0.51,0.58-0.84,1.65-1.21 c0.78,0.05,0.39,0.65,1.31,0.13c2.39,0.38,0.79,1.3,0.44,2.12c1.75,0.38-0.8,1.7,0.35,1.28l-0.32-0.18l1.74-1.24 c-1.73-0.89-0.63,0.93-1.34-0.01l-1.01-0.03c0.29-0.51,2.63-0.27,2.81-0.83c0.03,0.29-0.18,0.97-1.23,1.05l0.68,1.05 c0.61,0.08,0.98-0.66,1.33-0.19c0.94,0.65-1.27,1.17,0.96,1.34c2.38,0.11,2.17-1.2,3.79-1.11c-0.18-0.23-0.58-0.18-1.08-0.19 c0.5-0.39-0.43-0.64,0.43-0.96c0.54,0.7,2.23,0.56,3.52,0.47c-0.32,0.41,0.54,0.76,0.14,1.01c0.65-0.13,1.25-0.29,1.51-0.63 c-2.66-0.38,2.51-0.76,0.43-1.37c2.05-0.09,2.48,0.55,3.78,0.85c-0.07,0.23-2.33,0.6-0.5,0.8c2.04-0.89-0.44-1.03,1.13-2.05 l-1.33-0.19c-0.22-0.92,2.26-0.38,2.58-0.6c0.82,0.18-1.11,0.33-0.28,0.91c1.22,0.13,1.79-0.5,2.59-0.2 c-0.71,0.68-0.25,0.4-1.07,1.02c2.84-0.2-0.1,0.75,2.1,0.99c0.68-0.17,0.21-0.69,1.32-0.62c-0.69-0.63-0.63-0.86-2.42-0.76 c0.56-1.03,2.37,0.07,3.58-0.61c-1.01-0.01-0.33-0.17-1.4,0.05c-0.2-0.81-0.61-0.91,0.32-1.74c-1.15,0.3-1.59,1.22-3.27,1.1 c-0.51-0.8,2-0.78,1.95-1.87c0.79-0.61,2.83-0.28,3.78,0.05c1.56-0.79,3.54-0.95,4.7-2.02c1.19,0.23,4.02-0.92,6.24-0.82 c0.37,0.46,2.72,0.1,1.41,0.74c0.18-0.17,1.99-0.42,1.48-0.81c-0.17,0.17-0.39,0.06-0.78,0.12l0.3-0.63 c1.08,0.16,2.2-0.7,3.24-0.43c0.37,0.45-1.88,0.47-1.15,0.98c0.9-0.98,4.84-1.7,6.14-1.43c0.86,0.05,1.03,0.79,1.39,0.84 l1.42-0.19c0.19,0.23,0.24,0.51,0.53,0.79c0.72,0.11,1.17-0.19,1.6-0.37c1.91,0.31,0.97,1.01,0.06,1.6l-1.07-0.16 c-0.74,0.41-1.85,0.37-1.15,0.99c0.53-0.12,0.48-0.4,0.66-0.58l0.65,0.33c0.6-0.35,2.3-0.67,2.07-1.18c1.3,0.27,2.7-0.33,3.86,0 c-0.8-0.27,0.16-0.58-0.11-0.97l-1.36-0.03c1.06-0.25,2.58-0.79,3.63-0.52c-0.09,0.34-0.12,0.46,0.42,0.74 c-0.77-0.39,1.83-0.78,0.2-1.21c-0.56,0.24-1.09,0.36-1.85,0.38c-0.56-0.68,0.61-0.87,1.24-1.34c0.81-0.24,2.41-0.62,3.5-0.98 c0.72,0.1,1,0.9,2.16,0.3c-1.59-0.54,1.34-1.28,1.67-2.03c1.19,0.2,1.82-0.78,2.81-0.29c-0.45,0.3-2.23,0.45-2.63,1.03 c-0.02,0.52,0.52,1.31-1.21,1.74c2.14,0.05,1.2-0.56,2.15-0.86l-0.72,0.14c0.31-0.23-0.35-0.56,0.29-0.63 c2.5-0.05,3,0.45,4.75,0.9c-0.42-0.33,0.32-0.76,0.71-0.83c1.67,0.28,0.1,1.08,1.19,1.73c0.51-0.54,1.63-0.53,1.21-0.86 c0.64-0.09,0.33,0.16,0.81,0.25c0.36-0.48,0.81-0.78,1.7-0.88c-0.05,0.23-0.13,0.58-1,0.56c0.98,0.07,1.42,0.79,1.06,1.26 l-1.59-0.09c-0.65,0.61,1.48,0.04,1.49,0.56c-0.67,0.21-1.23-0.05-1.65,0.14c0.51,0.49,1.79-0.2,2.57-0.36 c1.26-0.07,0.87,0.53,0.93,0.81c2-1.14-2.57-0.66-0.71-1.74c0.67-0.72,2.56-0.88,3.86-1.18c-1.22-0.56-0.01-1.03,1.32-1.45 c-1.77,0.21-0.56-0.77-2.58-0.03l-0.12-0.57c0.89-0.11,1.97,0,2.86-0.1c-0.16,0.18,0.06,0.28-0.22,0.41l2.6-0.6l-0.22,0.41 c1.63-0.14,3.67,0.04,4.61-0.28c-0.77,0.14-1.52-0.33-0.72-0.6c0.44-0.3,1.27-0.68,2.02-0.71c0.47,0.61,3.25,0.3,1.56,1.15 c2.24-0.58,1.38-0.61,3.52-1.22l-1.44,0.31c-0.24-0.51,0.9-1.51-0.54-1.7c1.62-0.49,0.48-1.34,2.7-1.65 c0.93,0.24-0.18,1.09-1.42,1.33c0.63-0.02,1.23,0.23,1.84-0.19c0.51,0.39-1.12,0.87-1.04,1.04c1.14-0.07-0.05-0.28,1.01-0.52 c1.84-0.75,1.27,0.79,3.04,0.29c-0.39,0.05-1.1-0.07-0.65-0.35c2.42-0.15,1.31-0.62,3.06-0.99c1.04,0.71,0.64,1.56,2.24,1.66 l-0.88,0.03c0.64,0.36,1.34,0.49,1.98,0.46c3.27-0.8,5.98-2.03,9.41-2.65l-1.23,0.2c-0.42-0.26,1.02-0.33,1-0.62l0.77,0.34 c0.21-0.56-1.73-0.53-1.27-1.07c0.1,0.07,0.36,0.08,0.5,0.03l-0.71-0.16c1.61,0.16,2.89-0.83,4.1,0.08 c-3.14,0.1-0.49,1.62-3.54,1.91c1.62-0.23,0.29,0.59,0.46,0.84c0.85,0.12,0.42-0.43,1.37-0.24c-0.02,0.4-2.07,0.77-1.16,1.06 c0.1-0.62,0.95-0.5,1.36-0.93c0.7,0.17-0.02,0.4,0.29,0.6c0.39-0.03,0.62-0.29,0.97-0.21l-0.27,0.38c1.95,0.56,0.6-0.58,2.83-0.39 c0.07-0.51-0.62-0.4-1.55-0.31c-0.46-1.13,2.9-1.18,2.74-2.39c2.13-0.14-0.57,0.46,1.23,0.81c0.98,0.78-1.35,0.79-1.82,1.32 l1.86,0.52c-0.65,0.97-1.79,0.63-2.14,1.52c1.38,0.08,1.22-0.18,2.63-0.49c-2.25-0.8,1.01-0.59-0.27-1.58 c1.05,0.28,0.71,0.47,2.24,0.52c-0.98,0.18-0.06,0.79-1.35,0.78c2.06-0.01,1.51-0.24,3.57-0.23c0.68-0.67-2.05-1,0.46-1.38 c0.54,0.02,0.42,0.28,0.11,0.26c1.77,0.36-0.32-0.88,0.82-1.18c0.79-0.05,1.05,0.24,0.72,0.39c1.19-0.31,0.57-0.81,1.37-0.92 l-0.35-0.11c0.35-0.18-0.51-1.23,1.2-1.16c1.25,0.08,0.83,0.45,0.84,0.68c0.98-0.16,1.71,0.1,2.35,0.4 c-0.05-0.14,0.03-0.27,0.32-0.25c1.66-0.07,0.89,0.67,1.48,0.83c2.29,0.57-0.16-1.32,2.45-1.07c-1-0.19-2-0.37-3.01-0.54 c0.16-0.32,0.27-0.82-0.39-0.88c-0.11,0.5-1.23,0.84-2.23,0.69c-0.25-0.62,2.79-0.43,1.13-1.21c0.61,0.15,1.47,0.07,2.23,0.2 c-0.82,0.55,2.43,0.37,1.04,0.93c3.34,0.22,3.76,0.71,6.86,0.68c-0.33,0.33-2.4,1.05-3.93,0.58l-0.09-0.37 c-2.02,0.18,1.49,0.59,1.05,1.15c2.56-0.65,5.29,1.2,8.28,1.4c-0.46-0.41,0.16-0.49,0.34-0.8c-1.2-0.13-1.02,0.04-1.82-0.52 c0.24-0.41,0.92-0.12,1.36-0.36c0.4-0.43-0.9-0.17-1.28-0.5c1.18-0.05,1.09-0.14,1.83-0.42c0.56,0.5,0.43,0.7,0.83,1.22 c2.78,0.64,2.64-0.28,4.86,0.37c-1.23-0.36,0.48,0.62-0.85,0.17l0.74,0.22c-2.09,0.26-5.41-0.39-5.29,0.82 c1.59,0.2,2.86-0.23,4.79,0.16l-0.13,0.2c1.38,0.34,0.04-0.28,0.41-0.41c1.64-0.04,1.75,1.56,3.01,1l-1.54-0.55 c1.31-0.19-0.33-0.16,0.13-0.86c2.28-0.09,5.87,1.23,9.02,1.58c-0.75-0.64-0.99-0.74-2.12-1.09c0.8-0.87,1.22-0.59,0.91-1.62 l-1.39-0.43l0.23-0.95c0.39,0.09,0.76,0.24,1.08,0.43c0.36-0.53,2.09,0.8,2.35,0.26l-1.22-0.27c-0.45-0.65,0.95-0.2,1.85-0.11 c-0.63-0.84-2.64-0.74-4.37-1.15c0.03,0.37-1.86,0.62-0.22,1.14c-0.13,0.38-1.17,0.31-1.82,0.16c0.39-0.11-1.03-1.36,0.6-1.25 c-1.6,0.08-0.66-0.16-2.37-0.36c0.3-0.21-2.9-0.66-2.53-1.44c-0.61,0.24-0.25,1.22-2.18,0.85c0.35,0.67,2.47,1.21,0.9,1.52 l1.01-0.18c1.27,0.57-0.49,0.51,1.18,1.14c-0.5-0.15-1.6-0.08-1.74-0.54c0.17,1.3-2.7,0.05-2.96,0.93 c-0.3-0.44-0.8-0.57-1.77-0.66c0.19-0.3-0.27-0.73,0.51-0.81c0.59,0.22,1.06,0.17,1.68,0.58c-0.13-1.27-2.39-0.88-3.94-1.41 c0.21,0.14,0.25,0.26-0.22,0.36c-0.93-0.37-3.05-0.92-2.34-1.4c-1.65-0.22-3.31-0.4-4.96-0.57c0.02-0.29,0.72-0.03,1.04-0.08 l-2.76-0.38c-0.6-0.47,0.99-0.27,1.32-0.61l-2.01-0.22l0.32-0.35c-0.53,0.19-2.84,0.05-3.35-0.61c-2.23-0.03-2.29,1.24-5.22,0.46 c0.15-0.62,1.7-0.1,2.42-0.45c-0.57-0.27-2.37,0.04-2.64-0.56c-2.17,0.22-2,1.35-3.06,1.9c-1.74-0.04-0.17-0.54-0.22-0.72 c-0.52-0.06-1.4,1.04-1.84,0.19c-0.86,0.42-1.34,0.95-0.11,1.2c-0.92-0.04-2.23,0.21-2.47,0.48c0.76-0.9-1.03-0.39-1.11-1.15 c-1.37-0.19-4.43-0.47-5.72,0.53l0.39-1l-1.61,0.11c-1.21-0.61,1.43-0.64,2.23-0.69c-2.19-0.12-3.66-0.05-5.64-0.01 c0.58,0.21,0.24,0.42,0.52,0.72c-0.67,0.41-1.61,0.13-2.31,0.26c-0.17-0.24-0.09-0.46,0.46-0.55l-1.36,0.15 c0.1-0.63-0.57-0.6,0.77-1.05l-1.26,0.22c-1.39-0.13,0.05-0.51,0.39-0.73l-2.21-0.04c-0.78,0.37,0.47,0.53-1.05,0.76 c-2.05-0.48-4.64-0.14-6.97-0.16l1.67,0.48c-1.4-0.08-1.06,0.9-1.46,1.35c-1.29-0.01-3.01,0.16-4.12,0.01 c1.2-0.59,0.63-1.27-0.57-1.6c-2.63,0.16-1.9,1.18-3.31,1.68c1-1.35-1.85-0.23-1.67-0.92c-3.29,0.41-6.49,1.27-9.8,1.68 c0.09,0.17,1.06,0.23,0.5,0.49c-1.19,0.35-1.83-0.07-2.03-0.29c-1.55,0.32-2.39,0.82-2.86,1.24c0.66-0.21,0.74-0.04,0.66,0.31 c-1.54,0.31-1.21-0.57-2.61,0.19c-0.47-0.61,1.59-0.54,1.37-1.16c-1.37,0.13-2.19,0.51-3.14,0.95c-0.27-0.39,0.9-0.21,0.11-0.46 c-2.07,0.55-4.53,1.26-6.08,1.63l-0.48-0.5c-1.03,0.14-1.7,0.32-2.15,0.62c-0.58-0.16-0.16-0.34,0.37-0.47 c-1.39,0.09-3.04,0.69-3.82,0.82c0.09-0.34,0.78-0.13,0.98-0.42c-1.74,0.03-3.83,1.33-5.03,0.72c0.14-0.1,0.31-0.14,0.46-0.15 c-2.57,0.2-4.77,0.81-7.55,1.12c-2.61-0.42-0.75,0.92-3.27,1.07c-0.15-1.48-3.43,0.21-4.51,0.03l0.36,0.19 c-1.19,0.7-2.95,0.31-3.84-0.02c-1.88,0.07-4.68,0.31-6.51,1.06l0.35-0.34c-1.52,0.52-2.52,0.12-4.04,0.63 c0.03-0.11,0.6-0.34-0.01-0.4c-7.49,0.12-15.04,1.58-22.49,1.82c-3.58,0.1-7.37,0.21-11.27,0.33c-3.96,0.13-8.07,0.37-12.2,0.81 c-4.12,0.44-8.27,1.1-12.25,2.06c-3.86,0.94-7.45,1.98-10.79,2.95c0,0-1.29,1.84-2.47,3.95C87.37,153.33,86.27,155.7,86.98,156.86 z"/><path d="M260.4,137.42c-0.07-0.01-0.12-0.03-0.2-0.04C260.27,137.41,260.33,137.42,260.4,137.42z"/><path d="M226.7,137.56c0.16-0.01,0.32-0.04,0.47-0.07C227.02,137.49,226.86,137.51,226.7,137.56z"/><path d="M198.34,143.01l0.59-0.12C198.68,142.92,198.49,142.96,198.34,143.01z"/><path d="M155.01,149.58c0.26,0.4-0.88,1.25,0.17,1.55c3.58-0.22,1.4-1.77,5.09-1.93l-1.9-0.35 c0.15,0.74-1.12,1.26-2.55,1.42l-0.48-0.52c0.23-0.18,0.49-0.33,0.75-0.47C155.54,149.26,155.67,149.69,155.01,149.58z"/><path d="M156.22,149.3c-0.03-0.01-0.06-0.02-0.09-0.03c-0.01,0.01-0.03,0.01-0.05,0.02 C156.13,149.29,156.17,149.29,156.22,149.3z"/></g></g></svg>