<?xml version="1.0" encoding="UTF-8" standalone="no"?><svg xmlns="http://www.w3.org/2000/svg" xmlns:xlink="http://www.w3.org/1999/xlink" fill="#ffffff" height="125.6" preserveAspectRatio="xMidYMid meet" version="1" viewBox="-0.1 -0.1 114.6 125.6" width="114.6" zoomAndPan="magnify"><g><g id="change1_1"><path d="M65.5,28.4c-11.2-2.8-23.7,1.2-31.2,9.9c-7.5,8.8-9.4,21.7-4.9,32.3c0.7,1.7,1.7,3.4,2.5,5c0.6,1,1.2,2.1,1.7,3.2 c1.9,3.9,2.3,8.3,2.3,11.6c0.1,3.5,1.5,6.8,3.9,9.1c-1,1-1.7,2.5-1.5,4c0.1,1.7,1.1,3.4,2.7,4.7c0,0,0,0,0,0 c-0.7,0.8-1.1,1.9-0.9,3c0.1,1.2,0.9,2.4,2,3.3c-0.6,0.7-0.8,1.6-0.7,2.6c0.2,1.1,0.9,2.2,2,3c0.8,0.6,1.7,0.9,2.5,1.1 c0.1,1.3,0.9,2.6,2,3.4c0.8,0.6,1.8,0.9,2.8,0.9c0.7,0,1.4-0.2,2-0.5c1.3-0.6,2.2-1.8,2.6-3.2c0.5-0.1,1.1-0.2,1.6-0.3 c1.1-0.2,2.3-0.6,3.2-1.6c0.5-0.6,0.8-1.5,0.6-2.5c0-0.2-0.1-0.4-0.1-0.6c0.4-0.1,0.8-0.3,1.2-0.5c1.1-0.6,1.9-1.7,2.1-2.8 c0.1-0.6,0.1-1.4-0.2-2c0.8-0.2,1.6-0.4,2.3-0.8c1.1-0.6,2-1.5,2.3-2.5c0.4-1.1,0.2-2.4-0.4-3.6c-0.2-0.5-0.6-0.9-0.9-1.4 c3.8-1.8,4.6-4.8,5.1-6.5c0-0.2,0.1-0.3,0.1-0.5c1.4-4.4,2.8-6.6,5.9-11.4c1-1.5,2.3-3.1,3.7-4.8c4.1-5,9.3-11.2,9.3-20.4 c0-7.6-2.7-15-7.2-19.8C78.6,34.3,71.7,29.9,65.5,28.4z M51.7,123.3c-0.9,0.4-2,0.3-2.8-0.2c-0.4-0.3-0.8-0.8-1-1.3 c1.3,0.2,2.7,0.4,4.1,0.4c0.3,0,0.6,0,0.9,0C52.7,122.7,52.3,123.1,51.7,123.3z M58.5,118.8c-0.5,0.5-1.3,0.8-2.1,0.9 c-3,0.6-6.1,0.6-9-0.1c-0.1-0.1-0.3-0.2-0.5-0.2c-0.1,0-0.2,0-0.3,0c-0.7-0.2-1.5-0.4-2.1-0.9c-0.6-0.4-1-1-1.1-1.6 c-0.1-0.5,0.2-1,0.5-1.2c0.5,0.2,1,0.4,1.4,0.6c2.9,1,6,1.5,9,1.5c1.4,0,2.8-0.1,4.3-0.3c0,0.1,0.1,0.2,0.1,0.4 C58.7,118.3,58.6,118.7,58.5,118.8z M61.8,113.4c-0.1,0.5-0.5,1-1.1,1.4c-0.7,0.4-1.5,0.5-2.3,0.7c-4.2,0.7-8.5,0.3-12.5-1 c-0.8-0.3-1.8-0.7-2.6-1.3c-0.7-0.6-1.2-1.3-1.3-2c-0.1-0.7,0.2-1.3,0.7-1.6c0.9,0.5,1.9,0.8,2.7,1.1c3.6,1.2,7.5,1.8,11.3,1.8 c1.6,0,3.2-0.1,4.8-0.3C61.8,112.3,61.9,112.9,61.8,113.4z M66.1,105.7c0.4,0.7,0.5,1.5,0.3,2c-0.2,0.5-0.7,1.1-1.3,1.4 c-0.7,0.3-1.4,0.5-2.3,0.7c-5.5,1-11.2,0.5-16.5-1.2c-1.3-0.4-2.7-1-3.9-1.9c-1.1-0.9-1.8-2.1-1.9-3.3c-0.1-1,0.4-2,1.1-2.5 c1.3,1,2.9,1.7,4.5,2.2c2.8,0.7,8.7,1.4,11,1.6c0.9,0.1,1.8,0.1,2.6,0.1c2.2,0,3.9-0.3,5.4-0.7C65.4,104.7,65.8,105.2,66.1,105.7z M49.7,74.8c3.7,1.1,7.7,1.5,11.6,1.1c-3.2,8.5-4.9,17.7-4.9,26.8c-1.4-0.1-3.5-0.4-5.4-0.7C51.7,92.9,51.3,83.8,49.7,74.8z M80.2,79c-1.4,1.7-2.8,3.4-3.8,5c-3.2,5-4.7,7.3-6.1,11.9c-0.1,0.2-0.1,0.3-0.2,0.5c-0.4,1.5-1.2,4.2-4.8,5.5 c-0.3,0-0.6,0-0.8,0.2c0,0,0,0,0,0c-1.6,0.4-3.6,0.7-6.2,0.6c0-9.3,1.8-18.6,5.2-27.2c1.1-0.2,2.1-0.4,3.2-0.7 c1.8-0.5,3.8-1.3,4.8-3.3c0.6-1.1,0.6-2.4,0.1-3.4c-0.4-0.9-1.2-1.6-2.2-1.8c-1.2-0.3-2.5,0-3.6,0.8c-1.2,0.9-1.9,2.2-2.5,3.5 c-0.5,1-0.9,2.1-1.4,3.1c-4,0.5-8.2,0.2-12.1-1c-0.2-0.1-0.5-0.2-0.8-0.2c-0.3-1.4-0.7-2.8-1.4-4c-0.6-0.9-1.3-1.6-2.2-2.1 c-0.8-0.4-1.7-0.3-2.3,0.2c-0.7,0.5-1,1.3-0.8,2.2c0.3,1.2,1,2.4,2,3.4c0.9,0.8,1.9,1.4,3,1.8c1.8,9.1,2.2,18.4,1.5,27.6 c-1-0.2-1.9-0.3-2.6-0.5c-1.5-0.4-2.9-1.1-4.1-2.1c-0.1-0.1-0.2-0.2-0.3-0.2c-2.4-2-4-5.1-4-8.5c-0.1-3.6-0.4-8.2-2.5-12.5 c-0.5-1.1-1.2-2.2-1.7-3.3c-0.9-1.6-1.7-3.2-2.5-4.9c-4.2-9.9-2.4-22,4.6-30.2c5.5-6.4,13.9-10.1,22.3-10.1c2.3,0,4.6,0.3,6.8,0.8 c5.8,1.5,12.4,5.6,17.4,11.1c4.2,4.5,6.6,11.4,6.6,18.5C89.1,68.3,84.4,74,80.2,79z M64.5,73.4c0.3-0.6,0.5-1.2,0.8-1.8 c0.5-1.1,1-2.1,1.9-2.8c0.4-0.3,1-0.5,1.5-0.5c0.1,0,0.3,0,0.4,0c0.4,0.1,0.7,0.3,0.8,0.7c0.2,0.5,0.2,1.1-0.1,1.7 c-0.7,1.3-2.2,1.9-3.6,2.3C65.7,73.1,65.1,73.3,64.5,73.4z M47,71.5c-0.4-0.2-0.7-0.5-1-0.8c-0.7-0.7-1.2-1.5-1.4-2.4 c0,0,0-0.1,0-0.1c0,0,0.1,0,0.1,0c0,0,0.1,0,0.1,0c0.6,0.3,1.1,0.8,1.4,1.4C46.5,70.2,46.8,70.8,47,71.5z"/><path d="M46.8,37.8c-2.2-0.6-4.5,0.2-6.3,2.1c-2,2.1-2.3,5.5-0.6,7.8c1.2,1.6,3.2,2.5,5.2,2.5c0.8,0,1.6-0.2,2.4-0.5 c2.4-1.1,4.6-3.9,3.9-6.9C50.8,40.2,49.1,38.4,46.8,37.8z M46.7,47.8c-1.8,0.8-4,0.2-5.2-1.4c-1.1-1.5-0.9-3.8,0.5-5.2 c1.3-1.4,2.9-1.9,4.3-1.5c1.5,0.4,2.7,1.7,3.1,3.5C49.8,45.1,48.3,47.1,46.7,47.8z"/><path d="M66,12.5c0.1,0,0.1,0,0.2,0c0.5,0,0.9-0.3,1-0.8l2.3-10.5c0.1-0.5-0.2-1.1-0.8-1.2c-0.5-0.1-1.1,0.2-1.2,0.8l-2.3,10.5 C65.1,11.9,65.4,12.4,66,12.5z"/><path d="M39,15.7c0.2,0.3,0.5,0.5,0.8,0.5c0.2,0,0.4,0,0.5-0.2c0.5-0.3,0.6-0.9,0.3-1.4L33.9,3.8c-0.3-0.5-0.9-0.6-1.4-0.3 c-0.5,0.3-0.6,0.9-0.3,1.4L39,15.7z"/><path d="M4.4,39.5l13.2,4c0.1,0,0.2,0,0.3,0c0.4,0,0.8-0.3,1-0.7c0.2-0.5-0.1-1.1-0.7-1.2l-13.2-4c-0.5-0.2-1.1,0.1-1.2,0.7 C3.5,38.8,3.8,39.4,4.4,39.5z"/><path d="M15.3,70.8c-0.1-0.5-0.6-0.9-1.2-0.8L0.8,72.8c-0.5,0.1-0.9,0.6-0.8,1.2c0.1,0.5,0.5,0.8,1,0.8c0.1,0,0.1,0,0.2,0L14.5,72 C15,71.9,15.4,71.4,15.3,70.8z"/><path d="M21.6,90.6l-11,5.8c-0.5,0.3-0.7,0.9-0.4,1.4c0.2,0.3,0.5,0.5,0.9,0.5c0.2,0,0.3,0,0.5-0.1l11-5.8 c0.5-0.3,0.7-0.9,0.4-1.4C22.7,90.6,22.1,90.4,21.6,90.6z"/><path d="M81.8,102.3c-0.3-0.4-1-0.5-1.4-0.2c-0.4,0.3-0.5,1-0.2,1.4l7.8,9.7c0.2,0.2,0.5,0.4,0.8,0.4c0.2,0,0.4-0.1,0.6-0.2 c0.4-0.3,0.5-1,0.2-1.4L81.8,102.3z"/><path d="M108.5,88.6l-12.6-5.7c-0.5-0.2-1.1,0-1.3,0.5c-0.2,0.5,0,1.1,0.5,1.3l12.6,5.7c0.1,0.1,0.3,0.1,0.4,0.1 c0.4,0,0.7-0.2,0.9-0.6C109.2,89.4,109,88.8,108.5,88.6z"/><path d="M113.2,52.6l-11.7,2.3c-0.5,0.1-0.9,0.6-0.8,1.2c0.1,0.5,0.5,0.8,1,0.8c0.1,0,0.1,0,0.2,0l11.7-2.3 c0.5-0.1,0.9-0.6,0.8-1.2C114.3,52.8,113.8,52.5,113.2,52.6z"/><path d="M105,24.9c0.5-0.3,0.6-0.9,0.4-1.4c-0.3-0.5-0.9-0.6-1.4-0.4L93.8,29c-0.5,0.3-0.6,0.9-0.4,1.4c0.2,0.3,0.5,0.5,0.9,0.5 c0.2,0,0.3,0,0.5-0.1L105,24.9z"/></g></g></svg>